%TF.GenerationSoftware,KiCad,Pcbnew,9.0.0*%
%TF.CreationDate,2025-03-02T18:09:01-08:00*%
%TF.ProjectId,CFS-Bus Adapter R1,4346532d-4275-4732-9041-646170746572,rev?*%
%TF.SameCoordinates,Original*%
%TF.FileFunction,Soldermask,Top*%
%TF.FilePolarity,Negative*%
%FSLAX46Y46*%
G04 Gerber Fmt 4.6, Leading zero omitted, Abs format (unit mm)*
G04 Created by KiCad (PCBNEW 9.0.0) date 2025-03-02 18:09:01*
%MOMM*%
%LPD*%
G01*
G04 APERTURE LIST*
G04 Aperture macros list*
%AMRoundRect*
0 Rectangle with rounded corners*
0 $1 Rounding radius*
0 $2 $3 $4 $5 $6 $7 $8 $9 X,Y pos of 4 corners*
0 Add a 4 corners polygon primitive as box body*
4,1,4,$2,$3,$4,$5,$6,$7,$8,$9,$2,$3,0*
0 Add four circle primitives for the rounded corners*
1,1,$1+$1,$2,$3*
1,1,$1+$1,$4,$5*
1,1,$1+$1,$6,$7*
1,1,$1+$1,$8,$9*
0 Add four rect primitives between the rounded corners*
20,1,$1+$1,$2,$3,$4,$5,0*
20,1,$1+$1,$4,$5,$6,$7,0*
20,1,$1+$1,$6,$7,$8,$9,0*
20,1,$1+$1,$8,$9,$2,$3,0*%
G04 Aperture macros list end*
%ADD10RoundRect,0.375000X-0.625000X-0.375000X0.625000X-0.375000X0.625000X0.375000X-0.625000X0.375000X0*%
%ADD11RoundRect,0.500000X-0.500000X-1.400000X0.500000X-1.400000X0.500000X1.400000X-0.500000X1.400000X0*%
%ADD12RoundRect,0.250000X0.475000X-0.250000X0.475000X0.250000X-0.475000X0.250000X-0.475000X-0.250000X0*%
%ADD13C,0.800000*%
%ADD14C,6.400000*%
%ADD15R,1.270000X2.920000*%
%ADD16R,3.430000X1.650000*%
%ADD17R,1.700000X1.700000*%
%ADD18O,1.700000X1.700000*%
%ADD19R,4.600000X2.000000*%
%ADD20O,4.200000X2.000000*%
%ADD21O,2.000000X4.200000*%
%ADD22RoundRect,0.333334X0.666666X0.666666X-0.666666X0.666666X-0.666666X-0.666666X0.666666X-0.666666X0*%
%ADD23C,2.000000*%
%ADD24RoundRect,0.250000X0.450000X-0.262500X0.450000X0.262500X-0.450000X0.262500X-0.450000X-0.262500X0*%
%ADD25O,1.000000X1.800000*%
%ADD26O,1.000000X2.100000*%
%ADD27RoundRect,0.150000X-0.150000X-0.425000X0.150000X-0.425000X0.150000X0.425000X-0.150000X0.425000X0*%
%ADD28RoundRect,0.075000X-0.075000X-0.500000X0.075000X-0.500000X0.075000X0.500000X-0.075000X0.500000X0*%
%ADD29RoundRect,0.200000X-0.200000X-0.275000X0.200000X-0.275000X0.200000X0.275000X-0.200000X0.275000X0*%
%ADD30RoundRect,0.200000X0.200000X0.275000X-0.200000X0.275000X-0.200000X-0.275000X0.200000X-0.275000X0*%
%ADD31RoundRect,0.150000X0.150000X-0.825000X0.150000X0.825000X-0.150000X0.825000X-0.150000X-0.825000X0*%
%ADD32RoundRect,0.250000X-0.250000X-0.475000X0.250000X-0.475000X0.250000X0.475000X-0.250000X0.475000X0*%
%ADD33RoundRect,0.225000X0.225000X0.250000X-0.225000X0.250000X-0.225000X-0.250000X0.225000X-0.250000X0*%
%ADD34R,1.200000X1.400000*%
%ADD35RoundRect,0.225000X0.250000X-0.225000X0.250000X0.225000X-0.250000X0.225000X-0.250000X-0.225000X0*%
%ADD36RoundRect,0.150000X0.150000X-0.587500X0.150000X0.587500X-0.150000X0.587500X-0.150000X-0.587500X0*%
%ADD37RoundRect,0.225000X-0.225000X-0.250000X0.225000X-0.250000X0.225000X0.250000X-0.225000X0.250000X0*%
%ADD38RoundRect,0.218750X0.218750X0.256250X-0.218750X0.256250X-0.218750X-0.256250X0.218750X-0.256250X0*%
%ADD39RoundRect,0.150000X-0.650000X-0.150000X0.650000X-0.150000X0.650000X0.150000X-0.650000X0.150000X0*%
%ADD40RoundRect,0.075000X-0.662500X0.075000X-0.662500X-0.075000X0.662500X-0.075000X0.662500X0.075000X0*%
%ADD41RoundRect,0.075000X-0.075000X0.662500X-0.075000X-0.662500X0.075000X-0.662500X0.075000X0.662500X0*%
G04 APERTURE END LIST*
D10*
%TO.C,U5*%
X28850000Y27300000D03*
X28850000Y25000000D03*
D11*
X35150000Y25000000D03*
D10*
X28850000Y22700000D03*
%TD*%
D12*
%TO.C,C11*%
X26400000Y24950000D03*
X26400000Y26850000D03*
%TD*%
D13*
%TO.C,H1*%
X1600000Y4000000D03*
X2302944Y5697056D03*
X2302944Y2302944D03*
X4000000Y6400000D03*
D14*
X4000000Y4000000D03*
D13*
X4000000Y1600000D03*
X5697056Y5697056D03*
X5697056Y2302944D03*
X6400000Y4000000D03*
%TD*%
%TO.C,H2*%
X33600000Y4000000D03*
X34302944Y5697056D03*
X34302944Y2302944D03*
X36000000Y6400000D03*
D14*
X36000000Y4000000D03*
D13*
X36000000Y1600000D03*
X37697056Y5697056D03*
X37697056Y2302944D03*
X38400000Y4000000D03*
%TD*%
%TO.C,H3*%
X1600000Y56000000D03*
X2302944Y57697056D03*
X2302944Y54302944D03*
X4000000Y58400000D03*
D14*
X4000000Y56000000D03*
D13*
X4000000Y53600000D03*
X5697056Y57697056D03*
X5697056Y54302944D03*
X6400000Y56000000D03*
%TD*%
%TO.C,H4*%
X33600000Y56000000D03*
X34302944Y57697056D03*
X34302944Y54302944D03*
X36000000Y58400000D03*
D14*
X36000000Y56000000D03*
D13*
X36000000Y53600000D03*
X37697056Y57697056D03*
X37697056Y54302944D03*
X38400000Y56000000D03*
%TD*%
D15*
%TO.C,J1*%
X17015000Y49815000D03*
X20015000Y49815000D03*
X23015000Y49815000D03*
X17015000Y45185000D03*
X20015000Y45185000D03*
X23015000Y45185000D03*
D16*
X13130000Y55285000D03*
X26900000Y55285000D03*
%TD*%
D17*
%TO.C,J2*%
X3000000Y21620000D03*
D18*
X3000000Y19080000D03*
X3000000Y16540000D03*
X3000000Y14000000D03*
X3000000Y11460000D03*
%TD*%
D19*
%TO.C,J3*%
X27350000Y14350000D03*
D20*
X27350000Y8050000D03*
D21*
X32150000Y11450000D03*
%TD*%
D22*
%TO.C,J4*%
X24000000Y9320000D03*
D23*
X24000000Y12320000D03*
%TD*%
D17*
%TO.C,P2*%
X7000000Y22540000D03*
D18*
X7000000Y20000000D03*
%TD*%
D24*
%TO.C,R7*%
X25500000Y45787500D03*
X25500000Y47612500D03*
%TD*%
D23*
%TO.C,TP1*%
X26300000Y19000000D03*
%TD*%
%TO.C,TP2*%
X35000000Y39000000D03*
%TD*%
%TO.C,TP3*%
X8000000Y51000000D03*
%TD*%
%TO.C,TP4*%
X12000000Y14000000D03*
%TD*%
%TO.C,TP5*%
X12000000Y18000000D03*
%TD*%
D25*
%TO.C,X1*%
X18320000Y2925000D03*
D26*
X18320000Y7105000D03*
D25*
X9680000Y2925000D03*
D26*
X9680000Y7105000D03*
D27*
X10800000Y7680000D03*
X11600000Y7680000D03*
D28*
X12250000Y7680000D03*
X13250000Y7680000D03*
X14750000Y7680000D03*
X15750000Y7680000D03*
D27*
X16400000Y7680000D03*
X17200000Y7680000D03*
X17200000Y7680000D03*
X16400000Y7680000D03*
D28*
X15250000Y7680000D03*
X14250000Y7680000D03*
X13750000Y7680000D03*
X12750000Y7680000D03*
D27*
X11600000Y7680000D03*
X10800000Y7680000D03*
%TD*%
D29*
%TO.C,R3*%
X18825000Y10300000D03*
X17175000Y10300000D03*
%TD*%
D30*
%TO.C,R4*%
X10075000Y10300000D03*
X11725000Y10300000D03*
%TD*%
D31*
%TO.C,U3*%
X24095000Y37475000D03*
X25365000Y37475000D03*
X26635000Y37475000D03*
X27905000Y37475000D03*
X27905000Y32525000D03*
X26635000Y32525000D03*
X25365000Y32525000D03*
X24095000Y32525000D03*
%TD*%
D32*
%TO.C,C6*%
X31000000Y20000000D03*
X29100000Y20000000D03*
%TD*%
D29*
%TO.C,R8*%
X6825000Y29000000D03*
X5175000Y29000000D03*
%TD*%
D33*
%TO.C,C1*%
X12062500Y36250000D03*
X13612500Y36250000D03*
%TD*%
D34*
%TO.C,Y1*%
X11987500Y32150000D03*
X11987500Y34350000D03*
X13687500Y34350000D03*
X13687500Y32150000D03*
%TD*%
D35*
%TO.C,C4*%
X19837500Y34025000D03*
X19837500Y32475000D03*
%TD*%
D29*
%TO.C,R6*%
X7825000Y17000000D03*
X6175000Y17000000D03*
%TD*%
D36*
%TO.C,D6*%
X26350000Y42000000D03*
X27300000Y40125000D03*
X25400000Y40125000D03*
%TD*%
D37*
%TO.C,C9*%
X31775000Y34400000D03*
X30225000Y34400000D03*
%TD*%
D38*
%TO.C,D4*%
X1425000Y29000000D03*
X3000000Y29000000D03*
%TD*%
D35*
%TO.C,C5*%
X17837500Y34025000D03*
X17837500Y32475000D03*
%TD*%
D29*
%TO.C,R9*%
X6825000Y32000000D03*
X5175000Y32000000D03*
%TD*%
D33*
%TO.C,C3*%
X3325000Y25700000D03*
X4875000Y25700000D03*
%TD*%
D12*
%TO.C,C10*%
X21200000Y17950000D03*
X21200000Y16050000D03*
%TD*%
D39*
%TO.C,U4*%
X19150000Y16950000D03*
X19150000Y16000000D03*
X19150000Y15050000D03*
X16850000Y15050000D03*
X16850000Y16000000D03*
X16850000Y16950000D03*
%TD*%
D32*
%TO.C,C7*%
X33250000Y29800000D03*
X31350000Y29800000D03*
%TD*%
D38*
%TO.C,D1*%
X1425000Y41000000D03*
X3000000Y41000000D03*
%TD*%
D40*
%TO.C,U1*%
X22000000Y28000000D03*
X22000000Y27500000D03*
X22000000Y27000000D03*
X22000000Y26500000D03*
X22000000Y26000000D03*
X22000000Y25500000D03*
X22000000Y25000000D03*
X22000000Y24500000D03*
X22000000Y24000000D03*
X22000000Y23500000D03*
X22000000Y23000000D03*
X22000000Y22500000D03*
D41*
X20587500Y21087500D03*
X20087500Y21087500D03*
X19587500Y21087500D03*
X19087500Y21087500D03*
X18587500Y21087500D03*
X18087500Y21087500D03*
X17587500Y21087500D03*
X17087500Y21087500D03*
X16587500Y21087500D03*
X16087500Y21087500D03*
X15587500Y21087500D03*
X15087500Y21087500D03*
D40*
X13675000Y22500000D03*
X13675000Y23000000D03*
X13675000Y23500000D03*
X13675000Y24000000D03*
X13675000Y24500000D03*
X13675000Y25000000D03*
X13675000Y25500000D03*
X13675000Y26000000D03*
X13675000Y26500000D03*
X13675000Y27000000D03*
X13675000Y27500000D03*
X13675000Y28000000D03*
D41*
X15087500Y29412500D03*
X15587500Y29412500D03*
X16087500Y29412500D03*
X16587500Y29412500D03*
X17087500Y29412500D03*
X17587500Y29412500D03*
X18087500Y29412500D03*
X18587500Y29412500D03*
X19087500Y29412500D03*
X19587500Y29412500D03*
X20087500Y29412500D03*
X20587500Y29412500D03*
%TD*%
D38*
%TO.C,D3*%
X1425000Y35000000D03*
X3000000Y35000000D03*
%TD*%
D29*
%TO.C,R2*%
X6825000Y44000000D03*
X5175000Y44000000D03*
%TD*%
D38*
%TO.C,D2*%
X1425000Y44000000D03*
X3000000Y44000000D03*
%TD*%
%TO.C,D5*%
X1425000Y32000000D03*
X3000000Y32000000D03*
%TD*%
D29*
%TO.C,R1*%
X6825000Y41000000D03*
X5175000Y41000000D03*
%TD*%
%TO.C,R5*%
X6825000Y35000000D03*
X5175000Y35000000D03*
%TD*%
D37*
%TO.C,C8*%
X31675000Y37500000D03*
X30125000Y37500000D03*
%TD*%
%TO.C,C2*%
X13612500Y30250000D03*
X12062500Y30250000D03*
%TD*%
M02*
