%TF.GenerationSoftware,KiCad,Pcbnew,9.0.0*%
%TF.CreationDate,2025-03-02T18:09:01-08:00*%
%TF.ProjectId,CFS-Bus Adapter R1,4346532d-4275-4732-9041-646170746572,rev?*%
%TF.SameCoordinates,Original*%
%TF.FileFunction,Soldermask,Bot*%
%TF.FilePolarity,Negative*%
%FSLAX46Y46*%
G04 Gerber Fmt 4.6, Leading zero omitted, Abs format (unit mm)*
G04 Created by KiCad (PCBNEW 9.0.0) date 2025-03-02 18:09:01*
%MOMM*%
%LPD*%
G01*
G04 APERTURE LIST*
G04 Aperture macros list*
%AMRoundRect*
0 Rectangle with rounded corners*
0 $1 Rounding radius*
0 $2 $3 $4 $5 $6 $7 $8 $9 X,Y pos of 4 corners*
0 Add a 4 corners polygon primitive as box body*
4,1,4,$2,$3,$4,$5,$6,$7,$8,$9,$2,$3,0*
0 Add four circle primitives for the rounded corners*
1,1,$1+$1,$2,$3*
1,1,$1+$1,$4,$5*
1,1,$1+$1,$6,$7*
1,1,$1+$1,$8,$9*
0 Add four rect primitives between the rounded corners*
20,1,$1+$1,$2,$3,$4,$5,0*
20,1,$1+$1,$4,$5,$6,$7,0*
20,1,$1+$1,$6,$7,$8,$9,0*
20,1,$1+$1,$8,$9,$2,$3,0*%
G04 Aperture macros list end*
%ADD10C,0.800000*%
%ADD11C,6.400000*%
%ADD12R,1.700000X1.700000*%
%ADD13O,1.700000X1.700000*%
%ADD14R,4.600000X2.000000*%
%ADD15O,4.200000X2.000000*%
%ADD16O,2.000000X4.200000*%
%ADD17C,3.000000*%
%ADD18RoundRect,0.333334X0.666666X0.666666X-0.666666X0.666666X-0.666666X-0.666666X0.666666X-0.666666X0*%
%ADD19C,2.000000*%
%ADD20O,1.000000X1.800000*%
%ADD21O,1.000000X2.100000*%
%ADD22C,0.650000*%
G04 APERTURE END LIST*
D10*
%TO.C,H1*%
X1600000Y4000000D03*
X2302944Y5697056D03*
X2302944Y2302944D03*
X4000000Y6400000D03*
D11*
X4000000Y4000000D03*
D10*
X4000000Y1600000D03*
X5697056Y5697056D03*
X5697056Y2302944D03*
X6400000Y4000000D03*
%TD*%
%TO.C,H2*%
X33600000Y4000000D03*
X34302944Y5697056D03*
X34302944Y2302944D03*
X36000000Y6400000D03*
D11*
X36000000Y4000000D03*
D10*
X36000000Y1600000D03*
X37697056Y5697056D03*
X37697056Y2302944D03*
X38400000Y4000000D03*
%TD*%
%TO.C,H3*%
X1600000Y56000000D03*
X2302944Y57697056D03*
X2302944Y54302944D03*
X4000000Y58400000D03*
D11*
X4000000Y56000000D03*
D10*
X4000000Y53600000D03*
X5697056Y57697056D03*
X5697056Y54302944D03*
X6400000Y56000000D03*
%TD*%
%TO.C,H4*%
X33600000Y56000000D03*
X34302944Y57697056D03*
X34302944Y54302944D03*
X36000000Y58400000D03*
D11*
X36000000Y56000000D03*
D10*
X36000000Y53600000D03*
X37697056Y57697056D03*
X37697056Y54302944D03*
X38400000Y56000000D03*
%TD*%
D12*
%TO.C,J2*%
X3000000Y21620000D03*
D13*
X3000000Y19080000D03*
X3000000Y16540000D03*
X3000000Y14000000D03*
X3000000Y11460000D03*
%TD*%
D14*
%TO.C,J3*%
X27350000Y14350000D03*
D15*
X27350000Y8050000D03*
D16*
X32150000Y11450000D03*
%TD*%
D17*
%TO.C,J4*%
X24000000Y5000000D03*
D18*
X24000000Y9320000D03*
D19*
X24000000Y12320000D03*
%TD*%
D12*
%TO.C,P2*%
X7000000Y22540000D03*
D13*
X7000000Y20000000D03*
%TD*%
D19*
%TO.C,TP1*%
X26300000Y19000000D03*
%TD*%
%TO.C,TP2*%
X35000000Y39000000D03*
%TD*%
%TO.C,TP3*%
X8000000Y51000000D03*
%TD*%
%TO.C,TP4*%
X12000000Y14000000D03*
%TD*%
%TO.C,TP5*%
X12000000Y18000000D03*
%TD*%
D20*
%TO.C,X1*%
X18320000Y2925000D03*
D21*
X18320000Y7105000D03*
D20*
X9680000Y2925000D03*
D21*
X9680000Y7105000D03*
D22*
X16890000Y6605000D03*
X11110000Y6605000D03*
%TD*%
M02*
