%TF.GenerationSoftware,KiCad,Pcbnew,9.0.0*%
%TF.CreationDate,2025-03-02T18:09:01-08:00*%
%TF.ProjectId,CFS-Bus Adapter R1,4346532d-4275-4732-9041-646170746572,rev?*%
%TF.SameCoordinates,Original*%
%TF.FileFunction,Legend,Top*%
%TF.FilePolarity,Positive*%
%FSLAX46Y46*%
G04 Gerber Fmt 4.6, Leading zero omitted, Abs format (unit mm)*
G04 Created by KiCad (PCBNEW 9.0.0) date 2025-03-02 18:09:01*
%MOMM*%
%LPD*%
G01*
G04 APERTURE LIST*
G04 Aperture macros list*
%AMRoundRect*
0 Rectangle with rounded corners*
0 $1 Rounding radius*
0 $2 $3 $4 $5 $6 $7 $8 $9 X,Y pos of 4 corners*
0 Add a 4 corners polygon primitive as box body*
4,1,4,$2,$3,$4,$5,$6,$7,$8,$9,$2,$3,0*
0 Add four circle primitives for the rounded corners*
1,1,$1+$1,$2,$3*
1,1,$1+$1,$4,$5*
1,1,$1+$1,$6,$7*
1,1,$1+$1,$8,$9*
0 Add four rect primitives between the rounded corners*
20,1,$1+$1,$2,$3,$4,$5,0*
20,1,$1+$1,$4,$5,$6,$7,0*
20,1,$1+$1,$6,$7,$8,$9,0*
20,1,$1+$1,$8,$9,$2,$3,0*%
G04 Aperture macros list end*
%ADD10C,0.300000*%
%ADD11C,0.200000*%
%ADD12C,0.150000*%
%ADD13C,0.120000*%
%ADD14RoundRect,0.375000X-0.625000X-0.375000X0.625000X-0.375000X0.625000X0.375000X-0.625000X0.375000X0*%
%ADD15RoundRect,0.500000X-0.500000X-1.400000X0.500000X-1.400000X0.500000X1.400000X-0.500000X1.400000X0*%
%ADD16RoundRect,0.250000X0.475000X-0.250000X0.475000X0.250000X-0.475000X0.250000X-0.475000X-0.250000X0*%
%ADD17C,0.800000*%
%ADD18C,6.400000*%
%ADD19R,1.270000X2.920000*%
%ADD20R,3.430000X1.650000*%
%ADD21R,1.700000X1.700000*%
%ADD22O,1.700000X1.700000*%
%ADD23R,4.600000X2.000000*%
%ADD24O,4.200000X2.000000*%
%ADD25O,2.000000X4.200000*%
%ADD26C,3.000000*%
%ADD27RoundRect,0.333334X0.666666X0.666666X-0.666666X0.666666X-0.666666X-0.666666X0.666666X-0.666666X0*%
%ADD28C,2.000000*%
%ADD29RoundRect,0.250000X0.450000X-0.262500X0.450000X0.262500X-0.450000X0.262500X-0.450000X-0.262500X0*%
%ADD30O,1.000000X1.800000*%
%ADD31O,1.000000X2.100000*%
%ADD32RoundRect,0.150000X-0.150000X-0.425000X0.150000X-0.425000X0.150000X0.425000X-0.150000X0.425000X0*%
%ADD33RoundRect,0.075000X-0.075000X-0.500000X0.075000X-0.500000X0.075000X0.500000X-0.075000X0.500000X0*%
%ADD34C,0.650000*%
%ADD35RoundRect,0.200000X-0.200000X-0.275000X0.200000X-0.275000X0.200000X0.275000X-0.200000X0.275000X0*%
%ADD36RoundRect,0.200000X0.200000X0.275000X-0.200000X0.275000X-0.200000X-0.275000X0.200000X-0.275000X0*%
%ADD37RoundRect,0.150000X0.150000X-0.825000X0.150000X0.825000X-0.150000X0.825000X-0.150000X-0.825000X0*%
%ADD38RoundRect,0.250000X-0.250000X-0.475000X0.250000X-0.475000X0.250000X0.475000X-0.250000X0.475000X0*%
%ADD39RoundRect,0.225000X0.225000X0.250000X-0.225000X0.250000X-0.225000X-0.250000X0.225000X-0.250000X0*%
%ADD40R,1.200000X1.400000*%
%ADD41RoundRect,0.225000X0.250000X-0.225000X0.250000X0.225000X-0.250000X0.225000X-0.250000X-0.225000X0*%
%ADD42RoundRect,0.150000X0.150000X-0.587500X0.150000X0.587500X-0.150000X0.587500X-0.150000X-0.587500X0*%
%ADD43RoundRect,0.225000X-0.225000X-0.250000X0.225000X-0.250000X0.225000X0.250000X-0.225000X0.250000X0*%
%ADD44RoundRect,0.218750X0.218750X0.256250X-0.218750X0.256250X-0.218750X-0.256250X0.218750X-0.256250X0*%
%ADD45RoundRect,0.150000X-0.650000X-0.150000X0.650000X-0.150000X0.650000X0.150000X-0.650000X0.150000X0*%
%ADD46RoundRect,0.075000X-0.662500X0.075000X-0.662500X-0.075000X0.662500X-0.075000X0.662500X0.075000X0*%
%ADD47RoundRect,0.075000X-0.075000X0.662500X-0.075000X-0.662500X0.075000X-0.662500X0.075000X0.662500X0*%
G04 APERTURE END LIST*
D10*
X8811653Y31199171D02*
X8311653Y31913457D01*
X7954510Y31199171D02*
X7954510Y32699171D01*
X7954510Y32699171D02*
X8525939Y32699171D01*
X8525939Y32699171D02*
X8668796Y32627742D01*
X8668796Y32627742D02*
X8740225Y32556314D01*
X8740225Y32556314D02*
X8811653Y32413457D01*
X8811653Y32413457D02*
X8811653Y32199171D01*
X8811653Y32199171D02*
X8740225Y32056314D01*
X8740225Y32056314D02*
X8668796Y31984885D01*
X8668796Y31984885D02*
X8525939Y31913457D01*
X8525939Y31913457D02*
X7954510Y31913457D01*
X9311653Y32699171D02*
X10311653Y31199171D01*
X10311653Y32699171D02*
X9311653Y31199171D01*
D11*
X13926816Y18632780D02*
X14498244Y18632780D01*
X14212530Y17632780D02*
X14212530Y18632780D01*
X14736340Y18632780D02*
X15403006Y17632780D01*
X15403006Y18632780D02*
X14736340Y17632780D01*
D10*
X8854510Y40784885D02*
X9068796Y40713457D01*
X9068796Y40713457D02*
X9140225Y40642028D01*
X9140225Y40642028D02*
X9211653Y40499171D01*
X9211653Y40499171D02*
X9211653Y40284885D01*
X9211653Y40284885D02*
X9140225Y40142028D01*
X9140225Y40142028D02*
X9068796Y40070600D01*
X9068796Y40070600D02*
X8925939Y39999171D01*
X8925939Y39999171D02*
X8354510Y39999171D01*
X8354510Y39999171D02*
X8354510Y41499171D01*
X8354510Y41499171D02*
X8854510Y41499171D01*
X8854510Y41499171D02*
X8997368Y41427742D01*
X8997368Y41427742D02*
X9068796Y41356314D01*
X9068796Y41356314D02*
X9140225Y41213457D01*
X9140225Y41213457D02*
X9140225Y41070600D01*
X9140225Y41070600D02*
X9068796Y40927742D01*
X9068796Y40927742D02*
X8997368Y40856314D01*
X8997368Y40856314D02*
X8854510Y40784885D01*
X8854510Y40784885D02*
X8354510Y40784885D01*
X9854510Y41499171D02*
X9854510Y40284885D01*
X9854510Y40284885D02*
X9925939Y40142028D01*
X9925939Y40142028D02*
X9997368Y40070600D01*
X9997368Y40070600D02*
X10140225Y39999171D01*
X10140225Y39999171D02*
X10425939Y39999171D01*
X10425939Y39999171D02*
X10568796Y40070600D01*
X10568796Y40070600D02*
X10640225Y40142028D01*
X10640225Y40142028D02*
X10711653Y40284885D01*
X10711653Y40284885D02*
X10711653Y41499171D01*
X11925939Y40784885D02*
X11425939Y40784885D01*
X11425939Y39999171D02*
X11425939Y41499171D01*
X11425939Y41499171D02*
X12140225Y41499171D01*
X14354510Y40784885D02*
X14568796Y40713457D01*
X14568796Y40713457D02*
X14640225Y40642028D01*
X14640225Y40642028D02*
X14711653Y40499171D01*
X14711653Y40499171D02*
X14711653Y40284885D01*
X14711653Y40284885D02*
X14640225Y40142028D01*
X14640225Y40142028D02*
X14568796Y40070600D01*
X14568796Y40070600D02*
X14425939Y39999171D01*
X14425939Y39999171D02*
X13854510Y39999171D01*
X13854510Y39999171D02*
X13854510Y41499171D01*
X13854510Y41499171D02*
X14354510Y41499171D01*
X14354510Y41499171D02*
X14497368Y41427742D01*
X14497368Y41427742D02*
X14568796Y41356314D01*
X14568796Y41356314D02*
X14640225Y41213457D01*
X14640225Y41213457D02*
X14640225Y41070600D01*
X14640225Y41070600D02*
X14568796Y40927742D01*
X14568796Y40927742D02*
X14497368Y40856314D01*
X14497368Y40856314D02*
X14354510Y40784885D01*
X14354510Y40784885D02*
X13854510Y40784885D01*
D11*
X14541101Y13332780D02*
X14207768Y13808971D01*
X13969673Y13332780D02*
X13969673Y14332780D01*
X13969673Y14332780D02*
X14350625Y14332780D01*
X14350625Y14332780D02*
X14445863Y14285161D01*
X14445863Y14285161D02*
X14493482Y14237542D01*
X14493482Y14237542D02*
X14541101Y14142304D01*
X14541101Y14142304D02*
X14541101Y13999447D01*
X14541101Y13999447D02*
X14493482Y13904209D01*
X14493482Y13904209D02*
X14445863Y13856590D01*
X14445863Y13856590D02*
X14350625Y13808971D01*
X14350625Y13808971D02*
X13969673Y13808971D01*
X14874435Y14332780D02*
X15541101Y13332780D01*
X15541101Y14332780D02*
X14874435Y13332780D01*
X30193482Y17185161D02*
X30098244Y17232780D01*
X30098244Y17232780D02*
X29955387Y17232780D01*
X29955387Y17232780D02*
X29812530Y17185161D01*
X29812530Y17185161D02*
X29717292Y17089923D01*
X29717292Y17089923D02*
X29669673Y16994685D01*
X29669673Y16994685D02*
X29622054Y16804209D01*
X29622054Y16804209D02*
X29622054Y16661352D01*
X29622054Y16661352D02*
X29669673Y16470876D01*
X29669673Y16470876D02*
X29717292Y16375638D01*
X29717292Y16375638D02*
X29812530Y16280400D01*
X29812530Y16280400D02*
X29955387Y16232780D01*
X29955387Y16232780D02*
X30050625Y16232780D01*
X30050625Y16232780D02*
X30193482Y16280400D01*
X30193482Y16280400D02*
X30241101Y16328019D01*
X30241101Y16328019D02*
X30241101Y16661352D01*
X30241101Y16661352D02*
X30050625Y16661352D01*
X30669673Y16232780D02*
X30669673Y17232780D01*
X30669673Y17232780D02*
X31241101Y16232780D01*
X31241101Y16232780D02*
X31241101Y17232780D01*
X31717292Y16232780D02*
X31717292Y17232780D01*
X31717292Y17232780D02*
X31955387Y17232780D01*
X31955387Y17232780D02*
X32098244Y17185161D01*
X32098244Y17185161D02*
X32193482Y17089923D01*
X32193482Y17089923D02*
X32241101Y16994685D01*
X32241101Y16994685D02*
X32288720Y16804209D01*
X32288720Y16804209D02*
X32288720Y16661352D01*
X32288720Y16661352D02*
X32241101Y16470876D01*
X32241101Y16470876D02*
X32193482Y16375638D01*
X32193482Y16375638D02*
X32098244Y16280400D01*
X32098244Y16280400D02*
X31955387Y16232780D01*
X31955387Y16232780D02*
X31717292Y16232780D01*
X25645863Y17232780D02*
X25169673Y17232780D01*
X25169673Y17232780D02*
X25122054Y16756590D01*
X25122054Y16756590D02*
X25169673Y16804209D01*
X25169673Y16804209D02*
X25264911Y16851828D01*
X25264911Y16851828D02*
X25503006Y16851828D01*
X25503006Y16851828D02*
X25598244Y16804209D01*
X25598244Y16804209D02*
X25645863Y16756590D01*
X25645863Y16756590D02*
X25693482Y16661352D01*
X25693482Y16661352D02*
X25693482Y16423257D01*
X25693482Y16423257D02*
X25645863Y16328019D01*
X25645863Y16328019D02*
X25598244Y16280400D01*
X25598244Y16280400D02*
X25503006Y16232780D01*
X25503006Y16232780D02*
X25264911Y16232780D01*
X25264911Y16232780D02*
X25169673Y16280400D01*
X25169673Y16280400D02*
X25122054Y16328019D01*
X25979197Y17232780D02*
X26312530Y16232780D01*
X26312530Y16232780D02*
X26645863Y17232780D01*
X27169673Y17232780D02*
X27264911Y17232780D01*
X27264911Y17232780D02*
X27360149Y17185161D01*
X27360149Y17185161D02*
X27407768Y17137542D01*
X27407768Y17137542D02*
X27455387Y17042304D01*
X27455387Y17042304D02*
X27503006Y16851828D01*
X27503006Y16851828D02*
X27503006Y16613733D01*
X27503006Y16613733D02*
X27455387Y16423257D01*
X27455387Y16423257D02*
X27407768Y16328019D01*
X27407768Y16328019D02*
X27360149Y16280400D01*
X27360149Y16280400D02*
X27264911Y16232780D01*
X27264911Y16232780D02*
X27169673Y16232780D01*
X27169673Y16232780D02*
X27074435Y16280400D01*
X27074435Y16280400D02*
X27026816Y16328019D01*
X27026816Y16328019D02*
X26979197Y16423257D01*
X26979197Y16423257D02*
X26931578Y16613733D01*
X26931578Y16613733D02*
X26931578Y16851828D01*
X26931578Y16851828D02*
X26979197Y17042304D01*
X26979197Y17042304D02*
X27026816Y17137542D01*
X27026816Y17137542D02*
X27074435Y17185161D01*
X27074435Y17185161D02*
X27169673Y17232780D01*
D10*
X29711653Y48671860D02*
X29640225Y48600432D01*
X29640225Y48600432D02*
X29425939Y48529003D01*
X29425939Y48529003D02*
X29283082Y48529003D01*
X29283082Y48529003D02*
X29068796Y48600432D01*
X29068796Y48600432D02*
X28925939Y48743289D01*
X28925939Y48743289D02*
X28854510Y48886146D01*
X28854510Y48886146D02*
X28783082Y49171860D01*
X28783082Y49171860D02*
X28783082Y49386146D01*
X28783082Y49386146D02*
X28854510Y49671860D01*
X28854510Y49671860D02*
X28925939Y49814717D01*
X28925939Y49814717D02*
X29068796Y49957574D01*
X29068796Y49957574D02*
X29283082Y50029003D01*
X29283082Y50029003D02*
X29425939Y50029003D01*
X29425939Y50029003D02*
X29640225Y49957574D01*
X29640225Y49957574D02*
X29711653Y49886146D01*
X30854510Y49314717D02*
X30354510Y49314717D01*
X30354510Y48529003D02*
X30354510Y50029003D01*
X30354510Y50029003D02*
X31068796Y50029003D01*
X31568796Y48600432D02*
X31783082Y48529003D01*
X31783082Y48529003D02*
X32140224Y48529003D01*
X32140224Y48529003D02*
X32283082Y48600432D01*
X32283082Y48600432D02*
X32354510Y48671860D01*
X32354510Y48671860D02*
X32425939Y48814717D01*
X32425939Y48814717D02*
X32425939Y48957574D01*
X32425939Y48957574D02*
X32354510Y49100432D01*
X32354510Y49100432D02*
X32283082Y49171860D01*
X32283082Y49171860D02*
X32140224Y49243289D01*
X32140224Y49243289D02*
X31854510Y49314717D01*
X31854510Y49314717D02*
X31711653Y49386146D01*
X31711653Y49386146D02*
X31640224Y49457574D01*
X31640224Y49457574D02*
X31568796Y49600432D01*
X31568796Y49600432D02*
X31568796Y49743289D01*
X31568796Y49743289D02*
X31640224Y49886146D01*
X31640224Y49886146D02*
X31711653Y49957574D01*
X31711653Y49957574D02*
X31854510Y50029003D01*
X31854510Y50029003D02*
X32211653Y50029003D01*
X32211653Y50029003D02*
X32425939Y49957574D01*
X35068795Y48671860D02*
X34997367Y48600432D01*
X34997367Y48600432D02*
X34783081Y48529003D01*
X34783081Y48529003D02*
X34640224Y48529003D01*
X34640224Y48529003D02*
X34425938Y48600432D01*
X34425938Y48600432D02*
X34283081Y48743289D01*
X34283081Y48743289D02*
X34211652Y48886146D01*
X34211652Y48886146D02*
X34140224Y49171860D01*
X34140224Y49171860D02*
X34140224Y49386146D01*
X34140224Y49386146D02*
X34211652Y49671860D01*
X34211652Y49671860D02*
X34283081Y49814717D01*
X34283081Y49814717D02*
X34425938Y49957574D01*
X34425938Y49957574D02*
X34640224Y50029003D01*
X34640224Y50029003D02*
X34783081Y50029003D01*
X34783081Y50029003D02*
X34997367Y49957574D01*
X34997367Y49957574D02*
X35068795Y49886146D01*
X35640224Y48957574D02*
X36354510Y48957574D01*
X35497367Y48529003D02*
X35997367Y50029003D01*
X35997367Y50029003D02*
X36497367Y48529003D01*
X36997366Y48529003D02*
X36997366Y50029003D01*
X36997366Y50029003D02*
X37854509Y48529003D01*
X37854509Y48529003D02*
X37854509Y50029003D01*
X28783082Y46542658D02*
X29497368Y46542658D01*
X28640225Y46114087D02*
X29140225Y47614087D01*
X29140225Y47614087D02*
X29640225Y46114087D01*
X30783082Y46114087D02*
X30783082Y47614087D01*
X30783082Y46185516D02*
X30640224Y46114087D01*
X30640224Y46114087D02*
X30354510Y46114087D01*
X30354510Y46114087D02*
X30211653Y46185516D01*
X30211653Y46185516D02*
X30140224Y46256944D01*
X30140224Y46256944D02*
X30068796Y46399801D01*
X30068796Y46399801D02*
X30068796Y46828373D01*
X30068796Y46828373D02*
X30140224Y46971230D01*
X30140224Y46971230D02*
X30211653Y47042658D01*
X30211653Y47042658D02*
X30354510Y47114087D01*
X30354510Y47114087D02*
X30640224Y47114087D01*
X30640224Y47114087D02*
X30783082Y47042658D01*
X32140225Y46114087D02*
X32140225Y46899801D01*
X32140225Y46899801D02*
X32068796Y47042658D01*
X32068796Y47042658D02*
X31925939Y47114087D01*
X31925939Y47114087D02*
X31640225Y47114087D01*
X31640225Y47114087D02*
X31497367Y47042658D01*
X32140225Y46185516D02*
X31997367Y46114087D01*
X31997367Y46114087D02*
X31640225Y46114087D01*
X31640225Y46114087D02*
X31497367Y46185516D01*
X31497367Y46185516D02*
X31425939Y46328373D01*
X31425939Y46328373D02*
X31425939Y46471230D01*
X31425939Y46471230D02*
X31497367Y46614087D01*
X31497367Y46614087D02*
X31640225Y46685516D01*
X31640225Y46685516D02*
X31997367Y46685516D01*
X31997367Y46685516D02*
X32140225Y46756944D01*
X32854510Y47114087D02*
X32854510Y45614087D01*
X32854510Y47042658D02*
X32997368Y47114087D01*
X32997368Y47114087D02*
X33283082Y47114087D01*
X33283082Y47114087D02*
X33425939Y47042658D01*
X33425939Y47042658D02*
X33497368Y46971230D01*
X33497368Y46971230D02*
X33568796Y46828373D01*
X33568796Y46828373D02*
X33568796Y46399801D01*
X33568796Y46399801D02*
X33497368Y46256944D01*
X33497368Y46256944D02*
X33425939Y46185516D01*
X33425939Y46185516D02*
X33283082Y46114087D01*
X33283082Y46114087D02*
X32997368Y46114087D01*
X32997368Y46114087D02*
X32854510Y46185516D01*
X33997368Y47114087D02*
X34568796Y47114087D01*
X34211653Y47614087D02*
X34211653Y46328373D01*
X34211653Y46328373D02*
X34283082Y46185516D01*
X34283082Y46185516D02*
X34425939Y46114087D01*
X34425939Y46114087D02*
X34568796Y46114087D01*
X35640225Y46185516D02*
X35497368Y46114087D01*
X35497368Y46114087D02*
X35211654Y46114087D01*
X35211654Y46114087D02*
X35068796Y46185516D01*
X35068796Y46185516D02*
X34997368Y46328373D01*
X34997368Y46328373D02*
X34997368Y46899801D01*
X34997368Y46899801D02*
X35068796Y47042658D01*
X35068796Y47042658D02*
X35211654Y47114087D01*
X35211654Y47114087D02*
X35497368Y47114087D01*
X35497368Y47114087D02*
X35640225Y47042658D01*
X35640225Y47042658D02*
X35711654Y46899801D01*
X35711654Y46899801D02*
X35711654Y46756944D01*
X35711654Y46756944D02*
X34997368Y46614087D01*
X36354510Y46114087D02*
X36354510Y47114087D01*
X36354510Y46828373D02*
X36425939Y46971230D01*
X36425939Y46971230D02*
X36497368Y47042658D01*
X36497368Y47042658D02*
X36640225Y47114087D01*
X36640225Y47114087D02*
X36783082Y47114087D01*
X29354510Y44484885D02*
X29568796Y44413457D01*
X29568796Y44413457D02*
X29640225Y44342028D01*
X29640225Y44342028D02*
X29711653Y44199171D01*
X29711653Y44199171D02*
X29711653Y43984885D01*
X29711653Y43984885D02*
X29640225Y43842028D01*
X29640225Y43842028D02*
X29568796Y43770600D01*
X29568796Y43770600D02*
X29425939Y43699171D01*
X29425939Y43699171D02*
X28854510Y43699171D01*
X28854510Y43699171D02*
X28854510Y45199171D01*
X28854510Y45199171D02*
X29354510Y45199171D01*
X29354510Y45199171D02*
X29497368Y45127742D01*
X29497368Y45127742D02*
X29568796Y45056314D01*
X29568796Y45056314D02*
X29640225Y44913457D01*
X29640225Y44913457D02*
X29640225Y44770600D01*
X29640225Y44770600D02*
X29568796Y44627742D01*
X29568796Y44627742D02*
X29497368Y44556314D01*
X29497368Y44556314D02*
X29354510Y44484885D01*
X29354510Y44484885D02*
X28854510Y44484885D01*
X30568796Y43699171D02*
X30425939Y43770600D01*
X30425939Y43770600D02*
X30354510Y43842028D01*
X30354510Y43842028D02*
X30283082Y43984885D01*
X30283082Y43984885D02*
X30283082Y44413457D01*
X30283082Y44413457D02*
X30354510Y44556314D01*
X30354510Y44556314D02*
X30425939Y44627742D01*
X30425939Y44627742D02*
X30568796Y44699171D01*
X30568796Y44699171D02*
X30783082Y44699171D01*
X30783082Y44699171D02*
X30925939Y44627742D01*
X30925939Y44627742D02*
X30997368Y44556314D01*
X30997368Y44556314D02*
X31068796Y44413457D01*
X31068796Y44413457D02*
X31068796Y43984885D01*
X31068796Y43984885D02*
X30997368Y43842028D01*
X30997368Y43842028D02*
X30925939Y43770600D01*
X30925939Y43770600D02*
X30783082Y43699171D01*
X30783082Y43699171D02*
X30568796Y43699171D01*
X32354511Y43699171D02*
X32354511Y44484885D01*
X32354511Y44484885D02*
X32283082Y44627742D01*
X32283082Y44627742D02*
X32140225Y44699171D01*
X32140225Y44699171D02*
X31854511Y44699171D01*
X31854511Y44699171D02*
X31711653Y44627742D01*
X32354511Y43770600D02*
X32211653Y43699171D01*
X32211653Y43699171D02*
X31854511Y43699171D01*
X31854511Y43699171D02*
X31711653Y43770600D01*
X31711653Y43770600D02*
X31640225Y43913457D01*
X31640225Y43913457D02*
X31640225Y44056314D01*
X31640225Y44056314D02*
X31711653Y44199171D01*
X31711653Y44199171D02*
X31854511Y44270600D01*
X31854511Y44270600D02*
X32211653Y44270600D01*
X32211653Y44270600D02*
X32354511Y44342028D01*
X33068796Y43699171D02*
X33068796Y44699171D01*
X33068796Y44413457D02*
X33140225Y44556314D01*
X33140225Y44556314D02*
X33211654Y44627742D01*
X33211654Y44627742D02*
X33354511Y44699171D01*
X33354511Y44699171D02*
X33497368Y44699171D01*
X34640225Y43699171D02*
X34640225Y45199171D01*
X34640225Y43770600D02*
X34497367Y43699171D01*
X34497367Y43699171D02*
X34211653Y43699171D01*
X34211653Y43699171D02*
X34068796Y43770600D01*
X34068796Y43770600D02*
X33997367Y43842028D01*
X33997367Y43842028D02*
X33925939Y43984885D01*
X33925939Y43984885D02*
X33925939Y44413457D01*
X33925939Y44413457D02*
X33997367Y44556314D01*
X33997367Y44556314D02*
X34068796Y44627742D01*
X34068796Y44627742D02*
X34211653Y44699171D01*
X34211653Y44699171D02*
X34497367Y44699171D01*
X34497367Y44699171D02*
X34640225Y44627742D01*
D11*
X29774435Y33532780D02*
X30393482Y33532780D01*
X30393482Y33532780D02*
X30060149Y33151828D01*
X30060149Y33151828D02*
X30203006Y33151828D01*
X30203006Y33151828D02*
X30298244Y33104209D01*
X30298244Y33104209D02*
X30345863Y33056590D01*
X30345863Y33056590D02*
X30393482Y32961352D01*
X30393482Y32961352D02*
X30393482Y32723257D01*
X30393482Y32723257D02*
X30345863Y32628019D01*
X30345863Y32628019D02*
X30298244Y32580400D01*
X30298244Y32580400D02*
X30203006Y32532780D01*
X30203006Y32532780D02*
X29917292Y32532780D01*
X29917292Y32532780D02*
X29822054Y32580400D01*
X29822054Y32580400D02*
X29774435Y32628019D01*
X30679197Y33532780D02*
X31012530Y32532780D01*
X31012530Y32532780D02*
X31345863Y33532780D01*
X31583959Y33532780D02*
X32203006Y33532780D01*
X32203006Y33532780D02*
X31869673Y33151828D01*
X31869673Y33151828D02*
X32012530Y33151828D01*
X32012530Y33151828D02*
X32107768Y33104209D01*
X32107768Y33104209D02*
X32155387Y33056590D01*
X32155387Y33056590D02*
X32203006Y32961352D01*
X32203006Y32961352D02*
X32203006Y32723257D01*
X32203006Y32723257D02*
X32155387Y32628019D01*
X32155387Y32628019D02*
X32107768Y32580400D01*
X32107768Y32580400D02*
X32012530Y32532780D01*
X32012530Y32532780D02*
X31726816Y32532780D01*
X31726816Y32532780D02*
X31631578Y32580400D01*
X31631578Y32580400D02*
X31583959Y32628019D01*
D10*
X8854510Y43984885D02*
X9068796Y43913457D01*
X9068796Y43913457D02*
X9140225Y43842028D01*
X9140225Y43842028D02*
X9211653Y43699171D01*
X9211653Y43699171D02*
X9211653Y43484885D01*
X9211653Y43484885D02*
X9140225Y43342028D01*
X9140225Y43342028D02*
X9068796Y43270600D01*
X9068796Y43270600D02*
X8925939Y43199171D01*
X8925939Y43199171D02*
X8354510Y43199171D01*
X8354510Y43199171D02*
X8354510Y44699171D01*
X8354510Y44699171D02*
X8854510Y44699171D01*
X8854510Y44699171D02*
X8997368Y44627742D01*
X8997368Y44627742D02*
X9068796Y44556314D01*
X9068796Y44556314D02*
X9140225Y44413457D01*
X9140225Y44413457D02*
X9140225Y44270600D01*
X9140225Y44270600D02*
X9068796Y44127742D01*
X9068796Y44127742D02*
X8997368Y44056314D01*
X8997368Y44056314D02*
X8854510Y43984885D01*
X8854510Y43984885D02*
X8354510Y43984885D01*
X9854510Y44699171D02*
X9854510Y43484885D01*
X9854510Y43484885D02*
X9925939Y43342028D01*
X9925939Y43342028D02*
X9997368Y43270600D01*
X9997368Y43270600D02*
X10140225Y43199171D01*
X10140225Y43199171D02*
X10425939Y43199171D01*
X10425939Y43199171D02*
X10568796Y43270600D01*
X10568796Y43270600D02*
X10640225Y43342028D01*
X10640225Y43342028D02*
X10711653Y43484885D01*
X10711653Y43484885D02*
X10711653Y44699171D01*
X11925939Y43984885D02*
X11425939Y43984885D01*
X11425939Y43199171D02*
X11425939Y44699171D01*
X11425939Y44699171D02*
X12140225Y44699171D01*
X13783082Y43627742D02*
X14497368Y43627742D01*
X13640225Y43199171D02*
X14140225Y44699171D01*
X14140225Y44699171D02*
X14640225Y43199171D01*
X8040225Y29699171D02*
X8897368Y29699171D01*
X8468796Y28199171D02*
X8468796Y29699171D01*
X9254510Y29699171D02*
X10254510Y28199171D01*
X10254510Y29699171D02*
X9254510Y28199171D01*
X34528769Y8583082D02*
X34457341Y8654510D01*
X34457341Y8654510D02*
X34385912Y8797368D01*
X34385912Y8797368D02*
X34385912Y9154510D01*
X34385912Y9154510D02*
X34457341Y9297368D01*
X34457341Y9297368D02*
X34528769Y9368796D01*
X34528769Y9368796D02*
X34671626Y9440225D01*
X34671626Y9440225D02*
X34814484Y9440225D01*
X34814484Y9440225D02*
X35028769Y9368796D01*
X35028769Y9368796D02*
X35885912Y8511653D01*
X35885912Y8511653D02*
X35885912Y9440225D01*
X34885912Y10725939D02*
X35885912Y10725939D01*
X34314484Y10368796D02*
X35385912Y10011653D01*
X35385912Y10011653D02*
X35385912Y10940224D01*
X34385912Y11297367D02*
X35885912Y11797367D01*
X35885912Y11797367D02*
X34385912Y12297367D01*
X35885912Y13940223D02*
X34385912Y13940223D01*
X35885912Y14654509D02*
X34385912Y14654509D01*
X34385912Y14654509D02*
X35885912Y15511652D01*
X35885912Y15511652D02*
X34385912Y15511652D01*
X38157971Y9511653D02*
X38229400Y9440225D01*
X38229400Y9440225D02*
X38300828Y9225939D01*
X38300828Y9225939D02*
X38300828Y9083082D01*
X38300828Y9083082D02*
X38229400Y8868796D01*
X38229400Y8868796D02*
X38086542Y8725939D01*
X38086542Y8725939D02*
X37943685Y8654510D01*
X37943685Y8654510D02*
X37657971Y8583082D01*
X37657971Y8583082D02*
X37443685Y8583082D01*
X37443685Y8583082D02*
X37157971Y8654510D01*
X37157971Y8654510D02*
X37015114Y8725939D01*
X37015114Y8725939D02*
X36872257Y8868796D01*
X36872257Y8868796D02*
X36800828Y9083082D01*
X36800828Y9083082D02*
X36800828Y9225939D01*
X36800828Y9225939D02*
X36872257Y9440225D01*
X36872257Y9440225D02*
X36943685Y9511653D01*
X36800828Y9940225D02*
X36800828Y10797368D01*
X38300828Y10368796D02*
X36800828Y10368796D01*
X38300828Y12154510D02*
X37586542Y11654510D01*
X38300828Y11297367D02*
X36800828Y11297367D01*
X36800828Y11297367D02*
X36800828Y11868796D01*
X36800828Y11868796D02*
X36872257Y12011653D01*
X36872257Y12011653D02*
X36943685Y12083082D01*
X36943685Y12083082D02*
X37086542Y12154510D01*
X37086542Y12154510D02*
X37300828Y12154510D01*
X37300828Y12154510D02*
X37443685Y12083082D01*
X37443685Y12083082D02*
X37515114Y12011653D01*
X37515114Y12011653D02*
X37586542Y11868796D01*
X37586542Y11868796D02*
X37586542Y11297367D01*
X38300828Y13940224D02*
X36800828Y13940224D01*
X36800828Y13940224D02*
X36800828Y14511653D01*
X36800828Y14511653D02*
X36872257Y14654510D01*
X36872257Y14654510D02*
X36943685Y14725939D01*
X36943685Y14725939D02*
X37086542Y14797367D01*
X37086542Y14797367D02*
X37300828Y14797367D01*
X37300828Y14797367D02*
X37443685Y14725939D01*
X37443685Y14725939D02*
X37515114Y14654510D01*
X37515114Y14654510D02*
X37586542Y14511653D01*
X37586542Y14511653D02*
X37586542Y13940224D01*
X36800828Y15725939D02*
X36800828Y16011653D01*
X36800828Y16011653D02*
X36872257Y16154510D01*
X36872257Y16154510D02*
X37015114Y16297367D01*
X37015114Y16297367D02*
X37300828Y16368796D01*
X37300828Y16368796D02*
X37800828Y16368796D01*
X37800828Y16368796D02*
X38086542Y16297367D01*
X38086542Y16297367D02*
X38229400Y16154510D01*
X38229400Y16154510D02*
X38300828Y16011653D01*
X38300828Y16011653D02*
X38300828Y15725939D01*
X38300828Y15725939D02*
X38229400Y15583082D01*
X38229400Y15583082D02*
X38086542Y15440224D01*
X38086542Y15440224D02*
X37800828Y15368796D01*
X37800828Y15368796D02*
X37300828Y15368796D01*
X37300828Y15368796D02*
X37015114Y15440224D01*
X37015114Y15440224D02*
X36872257Y15583082D01*
X36872257Y15583082D02*
X36800828Y15725939D01*
X38229400Y16940225D02*
X38300828Y17154511D01*
X38300828Y17154511D02*
X38300828Y17511653D01*
X38300828Y17511653D02*
X38229400Y17654511D01*
X38229400Y17654511D02*
X38157971Y17725939D01*
X38157971Y17725939D02*
X38015114Y17797368D01*
X38015114Y17797368D02*
X37872257Y17797368D01*
X37872257Y17797368D02*
X37729400Y17725939D01*
X37729400Y17725939D02*
X37657971Y17654511D01*
X37657971Y17654511D02*
X37586542Y17511653D01*
X37586542Y17511653D02*
X37515114Y17225939D01*
X37515114Y17225939D02*
X37443685Y17083082D01*
X37443685Y17083082D02*
X37372257Y17011653D01*
X37372257Y17011653D02*
X37229400Y16940225D01*
X37229400Y16940225D02*
X37086542Y16940225D01*
X37086542Y16940225D02*
X36943685Y17011653D01*
X36943685Y17011653D02*
X36872257Y17083082D01*
X36872257Y17083082D02*
X36800828Y17225939D01*
X36800828Y17225939D02*
X36800828Y17583082D01*
X36800828Y17583082D02*
X36872257Y17797368D01*
D12*
X34538095Y29920180D02*
X34538095Y29110657D01*
X34538095Y29110657D02*
X34585714Y29015419D01*
X34585714Y29015419D02*
X34633333Y28967800D01*
X34633333Y28967800D02*
X34728571Y28920180D01*
X34728571Y28920180D02*
X34919047Y28920180D01*
X34919047Y28920180D02*
X35014285Y28967800D01*
X35014285Y28967800D02*
X35061904Y29015419D01*
X35061904Y29015419D02*
X35109523Y29110657D01*
X35109523Y29110657D02*
X35109523Y29920180D01*
X36061904Y29920180D02*
X35585714Y29920180D01*
X35585714Y29920180D02*
X35538095Y29443990D01*
X35538095Y29443990D02*
X35585714Y29491609D01*
X35585714Y29491609D02*
X35680952Y29539228D01*
X35680952Y29539228D02*
X35919047Y29539228D01*
X35919047Y29539228D02*
X36014285Y29491609D01*
X36014285Y29491609D02*
X36061904Y29443990D01*
X36061904Y29443990D02*
X36109523Y29348752D01*
X36109523Y29348752D02*
X36109523Y29110657D01*
X36109523Y29110657D02*
X36061904Y29015419D01*
X36061904Y29015419D02*
X36014285Y28967800D01*
X36014285Y28967800D02*
X35919047Y28920180D01*
X35919047Y28920180D02*
X35680952Y28920180D01*
X35680952Y28920180D02*
X35585714Y28967800D01*
X35585714Y28967800D02*
X35538095Y29015419D01*
X26759580Y22157142D02*
X26807200Y22109523D01*
X26807200Y22109523D02*
X26854819Y21966666D01*
X26854819Y21966666D02*
X26854819Y21871428D01*
X26854819Y21871428D02*
X26807200Y21728571D01*
X26807200Y21728571D02*
X26711961Y21633333D01*
X26711961Y21633333D02*
X26616723Y21585714D01*
X26616723Y21585714D02*
X26426247Y21538095D01*
X26426247Y21538095D02*
X26283390Y21538095D01*
X26283390Y21538095D02*
X26092914Y21585714D01*
X26092914Y21585714D02*
X25997676Y21633333D01*
X25997676Y21633333D02*
X25902438Y21728571D01*
X25902438Y21728571D02*
X25854819Y21871428D01*
X25854819Y21871428D02*
X25854819Y21966666D01*
X25854819Y21966666D02*
X25902438Y22109523D01*
X25902438Y22109523D02*
X25950057Y22157142D01*
X26854819Y23109523D02*
X26854819Y22538095D01*
X26854819Y22823809D02*
X25854819Y22823809D01*
X25854819Y22823809D02*
X25997676Y22728571D01*
X25997676Y22728571D02*
X26092914Y22633333D01*
X26092914Y22633333D02*
X26140533Y22538095D01*
X26854819Y24061904D02*
X26854819Y23490476D01*
X26854819Y23776190D02*
X25854819Y23776190D01*
X25854819Y23776190D02*
X25997676Y23680952D01*
X25997676Y23680952D02*
X26092914Y23585714D01*
X26092914Y23585714D02*
X26140533Y23490476D01*
X27781666Y58045180D02*
X27781666Y57330895D01*
X27781666Y57330895D02*
X27734047Y57188038D01*
X27734047Y57188038D02*
X27638809Y57092800D01*
X27638809Y57092800D02*
X27495952Y57045180D01*
X27495952Y57045180D02*
X27400714Y57045180D01*
X28781666Y57045180D02*
X28210238Y57045180D01*
X28495952Y57045180D02*
X28495952Y58045180D01*
X28495952Y58045180D02*
X28400714Y57902323D01*
X28400714Y57902323D02*
X28305476Y57807085D01*
X28305476Y57807085D02*
X28210238Y57759466D01*
X1466666Y24245180D02*
X1466666Y23530895D01*
X1466666Y23530895D02*
X1419047Y23388038D01*
X1419047Y23388038D02*
X1323809Y23292800D01*
X1323809Y23292800D02*
X1180952Y23245180D01*
X1180952Y23245180D02*
X1085714Y23245180D01*
X1895238Y24149942D02*
X1942857Y24197561D01*
X1942857Y24197561D02*
X2038095Y24245180D01*
X2038095Y24245180D02*
X2276190Y24245180D01*
X2276190Y24245180D02*
X2371428Y24197561D01*
X2371428Y24197561D02*
X2419047Y24149942D01*
X2419047Y24149942D02*
X2466666Y24054704D01*
X2466666Y24054704D02*
X2466666Y23959466D01*
X2466666Y23959466D02*
X2419047Y23816609D01*
X2419047Y23816609D02*
X1847619Y23245180D01*
X1847619Y23245180D02*
X2466666Y23245180D01*
X29316666Y3445180D02*
X29316666Y2730895D01*
X29316666Y2730895D02*
X29269047Y2588038D01*
X29269047Y2588038D02*
X29173809Y2492800D01*
X29173809Y2492800D02*
X29030952Y2445180D01*
X29030952Y2445180D02*
X28935714Y2445180D01*
X29697619Y3445180D02*
X30316666Y3445180D01*
X30316666Y3445180D02*
X29983333Y3064228D01*
X29983333Y3064228D02*
X30126190Y3064228D01*
X30126190Y3064228D02*
X30221428Y3016609D01*
X30221428Y3016609D02*
X30269047Y2968990D01*
X30269047Y2968990D02*
X30316666Y2873752D01*
X30316666Y2873752D02*
X30316666Y2635657D01*
X30316666Y2635657D02*
X30269047Y2540419D01*
X30269047Y2540419D02*
X30221428Y2492800D01*
X30221428Y2492800D02*
X30126190Y2445180D01*
X30126190Y2445180D02*
X29840476Y2445180D01*
X29840476Y2445180D02*
X29745238Y2492800D01*
X29745238Y2492800D02*
X29697619Y2540419D01*
X21266666Y2545180D02*
X21266666Y1830895D01*
X21266666Y1830895D02*
X21219047Y1688038D01*
X21219047Y1688038D02*
X21123809Y1592800D01*
X21123809Y1592800D02*
X20980952Y1545180D01*
X20980952Y1545180D02*
X20885714Y1545180D01*
X22171428Y2211847D02*
X22171428Y1545180D01*
X21933333Y2592800D02*
X21695238Y1878514D01*
X21695238Y1878514D02*
X22314285Y1878514D01*
X6261905Y24415180D02*
X6261905Y25415180D01*
X6261905Y25415180D02*
X6642857Y25415180D01*
X6642857Y25415180D02*
X6738095Y25367561D01*
X6738095Y25367561D02*
X6785714Y25319942D01*
X6785714Y25319942D02*
X6833333Y25224704D01*
X6833333Y25224704D02*
X6833333Y25081847D01*
X6833333Y25081847D02*
X6785714Y24986609D01*
X6785714Y24986609D02*
X6738095Y24938990D01*
X6738095Y24938990D02*
X6642857Y24891371D01*
X6642857Y24891371D02*
X6261905Y24891371D01*
X7214286Y25319942D02*
X7261905Y25367561D01*
X7261905Y25367561D02*
X7357143Y25415180D01*
X7357143Y25415180D02*
X7595238Y25415180D01*
X7595238Y25415180D02*
X7690476Y25367561D01*
X7690476Y25367561D02*
X7738095Y25319942D01*
X7738095Y25319942D02*
X7785714Y25224704D01*
X7785714Y25224704D02*
X7785714Y25129466D01*
X7785714Y25129466D02*
X7738095Y24986609D01*
X7738095Y24986609D02*
X7166667Y24415180D01*
X7166667Y24415180D02*
X7785714Y24415180D01*
X25454819Y44133333D02*
X24978628Y43800000D01*
X25454819Y43561905D02*
X24454819Y43561905D01*
X24454819Y43561905D02*
X24454819Y43942857D01*
X24454819Y43942857D02*
X24502438Y44038095D01*
X24502438Y44038095D02*
X24550057Y44085714D01*
X24550057Y44085714D02*
X24645295Y44133333D01*
X24645295Y44133333D02*
X24788152Y44133333D01*
X24788152Y44133333D02*
X24883390Y44085714D01*
X24883390Y44085714D02*
X24931009Y44038095D01*
X24931009Y44038095D02*
X24978628Y43942857D01*
X24978628Y43942857D02*
X24978628Y43561905D01*
X24454819Y44466667D02*
X24454819Y45133333D01*
X24454819Y45133333D02*
X25454819Y44704762D01*
X22738095Y21145180D02*
X23309523Y21145180D01*
X23023809Y20145180D02*
X23023809Y21145180D01*
X23642857Y20145180D02*
X23642857Y21145180D01*
X23642857Y21145180D02*
X24023809Y21145180D01*
X24023809Y21145180D02*
X24119047Y21097561D01*
X24119047Y21097561D02*
X24166666Y21049942D01*
X24166666Y21049942D02*
X24214285Y20954704D01*
X24214285Y20954704D02*
X24214285Y20811847D01*
X24214285Y20811847D02*
X24166666Y20716609D01*
X24166666Y20716609D02*
X24119047Y20668990D01*
X24119047Y20668990D02*
X24023809Y20621371D01*
X24023809Y20621371D02*
X23642857Y20621371D01*
X25166666Y20145180D02*
X24595238Y20145180D01*
X24880952Y20145180D02*
X24880952Y21145180D01*
X24880952Y21145180D02*
X24785714Y21002323D01*
X24785714Y21002323D02*
X24690476Y20907085D01*
X24690476Y20907085D02*
X24595238Y20859466D01*
X37117319Y37838095D02*
X37117319Y38409523D01*
X38117319Y38123809D02*
X37117319Y38123809D01*
X38117319Y38742857D02*
X37117319Y38742857D01*
X37117319Y38742857D02*
X37117319Y39123809D01*
X37117319Y39123809D02*
X37164938Y39219047D01*
X37164938Y39219047D02*
X37212557Y39266666D01*
X37212557Y39266666D02*
X37307795Y39314285D01*
X37307795Y39314285D02*
X37450652Y39314285D01*
X37450652Y39314285D02*
X37545890Y39266666D01*
X37545890Y39266666D02*
X37593509Y39219047D01*
X37593509Y39219047D02*
X37641128Y39123809D01*
X37641128Y39123809D02*
X37641128Y38742857D01*
X37212557Y39695238D02*
X37164938Y39742857D01*
X37164938Y39742857D02*
X37117319Y39838095D01*
X37117319Y39838095D02*
X37117319Y40076190D01*
X37117319Y40076190D02*
X37164938Y40171428D01*
X37164938Y40171428D02*
X37212557Y40219047D01*
X37212557Y40219047D02*
X37307795Y40266666D01*
X37307795Y40266666D02*
X37403033Y40266666D01*
X37403033Y40266666D02*
X37545890Y40219047D01*
X37545890Y40219047D02*
X38117319Y39647619D01*
X38117319Y39647619D02*
X38117319Y40266666D01*
X9438095Y53245180D02*
X10009523Y53245180D01*
X9723809Y52245180D02*
X9723809Y53245180D01*
X10342857Y52245180D02*
X10342857Y53245180D01*
X10342857Y53245180D02*
X10723809Y53245180D01*
X10723809Y53245180D02*
X10819047Y53197561D01*
X10819047Y53197561D02*
X10866666Y53149942D01*
X10866666Y53149942D02*
X10914285Y53054704D01*
X10914285Y53054704D02*
X10914285Y52911847D01*
X10914285Y52911847D02*
X10866666Y52816609D01*
X10866666Y52816609D02*
X10819047Y52768990D01*
X10819047Y52768990D02*
X10723809Y52721371D01*
X10723809Y52721371D02*
X10342857Y52721371D01*
X11247619Y53245180D02*
X11866666Y53245180D01*
X11866666Y53245180D02*
X11533333Y52864228D01*
X11533333Y52864228D02*
X11676190Y52864228D01*
X11676190Y52864228D02*
X11771428Y52816609D01*
X11771428Y52816609D02*
X11819047Y52768990D01*
X11819047Y52768990D02*
X11866666Y52673752D01*
X11866666Y52673752D02*
X11866666Y52435657D01*
X11866666Y52435657D02*
X11819047Y52340419D01*
X11819047Y52340419D02*
X11771428Y52292800D01*
X11771428Y52292800D02*
X11676190Y52245180D01*
X11676190Y52245180D02*
X11390476Y52245180D01*
X11390476Y52245180D02*
X11295238Y52292800D01*
X11295238Y52292800D02*
X11247619Y52340419D01*
X8954819Y12038095D02*
X8954819Y12609523D01*
X9954819Y12323809D02*
X8954819Y12323809D01*
X9954819Y12942857D02*
X8954819Y12942857D01*
X8954819Y12942857D02*
X8954819Y13323809D01*
X8954819Y13323809D02*
X9002438Y13419047D01*
X9002438Y13419047D02*
X9050057Y13466666D01*
X9050057Y13466666D02*
X9145295Y13514285D01*
X9145295Y13514285D02*
X9288152Y13514285D01*
X9288152Y13514285D02*
X9383390Y13466666D01*
X9383390Y13466666D02*
X9431009Y13419047D01*
X9431009Y13419047D02*
X9478628Y13323809D01*
X9478628Y13323809D02*
X9478628Y12942857D01*
X9288152Y14371428D02*
X9954819Y14371428D01*
X8907200Y14133333D02*
X9621485Y13895238D01*
X9621485Y13895238D02*
X9621485Y14514285D01*
X8954819Y16038095D02*
X8954819Y16609523D01*
X9954819Y16323809D02*
X8954819Y16323809D01*
X9954819Y16942857D02*
X8954819Y16942857D01*
X8954819Y16942857D02*
X8954819Y17323809D01*
X8954819Y17323809D02*
X9002438Y17419047D01*
X9002438Y17419047D02*
X9050057Y17466666D01*
X9050057Y17466666D02*
X9145295Y17514285D01*
X9145295Y17514285D02*
X9288152Y17514285D01*
X9288152Y17514285D02*
X9383390Y17466666D01*
X9383390Y17466666D02*
X9431009Y17419047D01*
X9431009Y17419047D02*
X9478628Y17323809D01*
X9478628Y17323809D02*
X9478628Y16942857D01*
X8954819Y18419047D02*
X8954819Y17942857D01*
X8954819Y17942857D02*
X9431009Y17895238D01*
X9431009Y17895238D02*
X9383390Y17942857D01*
X9383390Y17942857D02*
X9335771Y18038095D01*
X9335771Y18038095D02*
X9335771Y18276190D01*
X9335771Y18276190D02*
X9383390Y18371428D01*
X9383390Y18371428D02*
X9431009Y18419047D01*
X9431009Y18419047D02*
X9526247Y18466666D01*
X9526247Y18466666D02*
X9764342Y18466666D01*
X9764342Y18466666D02*
X9859580Y18419047D01*
X9859580Y18419047D02*
X9907200Y18371428D01*
X9907200Y18371428D02*
X9954819Y18276190D01*
X9954819Y18276190D02*
X9954819Y18038095D01*
X9954819Y18038095D02*
X9907200Y17942857D01*
X9907200Y17942857D02*
X9859580Y17895238D01*
X14190476Y10045180D02*
X14857142Y9045180D01*
X14857142Y10045180D02*
X14190476Y9045180D01*
X15761904Y9045180D02*
X15190476Y9045180D01*
X15476190Y9045180D02*
X15476190Y10045180D01*
X15476190Y10045180D02*
X15380952Y9902323D01*
X15380952Y9902323D02*
X15285714Y9807085D01*
X15285714Y9807085D02*
X15190476Y9759466D01*
X17833333Y11275180D02*
X17500000Y11751371D01*
X17261905Y11275180D02*
X17261905Y12275180D01*
X17261905Y12275180D02*
X17642857Y12275180D01*
X17642857Y12275180D02*
X17738095Y12227561D01*
X17738095Y12227561D02*
X17785714Y12179942D01*
X17785714Y12179942D02*
X17833333Y12084704D01*
X17833333Y12084704D02*
X17833333Y11941847D01*
X17833333Y11941847D02*
X17785714Y11846609D01*
X17785714Y11846609D02*
X17738095Y11798990D01*
X17738095Y11798990D02*
X17642857Y11751371D01*
X17642857Y11751371D02*
X17261905Y11751371D01*
X18166667Y12275180D02*
X18785714Y12275180D01*
X18785714Y12275180D02*
X18452381Y11894228D01*
X18452381Y11894228D02*
X18595238Y11894228D01*
X18595238Y11894228D02*
X18690476Y11846609D01*
X18690476Y11846609D02*
X18738095Y11798990D01*
X18738095Y11798990D02*
X18785714Y11703752D01*
X18785714Y11703752D02*
X18785714Y11465657D01*
X18785714Y11465657D02*
X18738095Y11370419D01*
X18738095Y11370419D02*
X18690476Y11322800D01*
X18690476Y11322800D02*
X18595238Y11275180D01*
X18595238Y11275180D02*
X18309524Y11275180D01*
X18309524Y11275180D02*
X18214286Y11322800D01*
X18214286Y11322800D02*
X18166667Y11370419D01*
X13333333Y10295180D02*
X13000000Y10771371D01*
X12761905Y10295180D02*
X12761905Y11295180D01*
X12761905Y11295180D02*
X13142857Y11295180D01*
X13142857Y11295180D02*
X13238095Y11247561D01*
X13238095Y11247561D02*
X13285714Y11199942D01*
X13285714Y11199942D02*
X13333333Y11104704D01*
X13333333Y11104704D02*
X13333333Y10961847D01*
X13333333Y10961847D02*
X13285714Y10866609D01*
X13285714Y10866609D02*
X13238095Y10818990D01*
X13238095Y10818990D02*
X13142857Y10771371D01*
X13142857Y10771371D02*
X12761905Y10771371D01*
X14190476Y10961847D02*
X14190476Y10295180D01*
X13952381Y11342800D02*
X13714286Y10628514D01*
X13714286Y10628514D02*
X14333333Y10628514D01*
X21954819Y34988095D02*
X22764342Y34988095D01*
X22764342Y34988095D02*
X22859580Y35035714D01*
X22859580Y35035714D02*
X22907200Y35083333D01*
X22907200Y35083333D02*
X22954819Y35178571D01*
X22954819Y35178571D02*
X22954819Y35369047D01*
X22954819Y35369047D02*
X22907200Y35464285D01*
X22907200Y35464285D02*
X22859580Y35511904D01*
X22859580Y35511904D02*
X22764342Y35559523D01*
X22764342Y35559523D02*
X21954819Y35559523D01*
X21954819Y35940476D02*
X21954819Y36559523D01*
X21954819Y36559523D02*
X22335771Y36226190D01*
X22335771Y36226190D02*
X22335771Y36369047D01*
X22335771Y36369047D02*
X22383390Y36464285D01*
X22383390Y36464285D02*
X22431009Y36511904D01*
X22431009Y36511904D02*
X22526247Y36559523D01*
X22526247Y36559523D02*
X22764342Y36559523D01*
X22764342Y36559523D02*
X22859580Y36511904D01*
X22859580Y36511904D02*
X22907200Y36464285D01*
X22907200Y36464285D02*
X22954819Y36369047D01*
X22954819Y36369047D02*
X22954819Y36083333D01*
X22954819Y36083333D02*
X22907200Y35988095D01*
X22907200Y35988095D02*
X22859580Y35940476D01*
X28783333Y17977919D02*
X28735714Y17930300D01*
X28735714Y17930300D02*
X28592857Y17882680D01*
X28592857Y17882680D02*
X28497619Y17882680D01*
X28497619Y17882680D02*
X28354762Y17930300D01*
X28354762Y17930300D02*
X28259524Y18025538D01*
X28259524Y18025538D02*
X28211905Y18120776D01*
X28211905Y18120776D02*
X28164286Y18311252D01*
X28164286Y18311252D02*
X28164286Y18454109D01*
X28164286Y18454109D02*
X28211905Y18644585D01*
X28211905Y18644585D02*
X28259524Y18739823D01*
X28259524Y18739823D02*
X28354762Y18835061D01*
X28354762Y18835061D02*
X28497619Y18882680D01*
X28497619Y18882680D02*
X28592857Y18882680D01*
X28592857Y18882680D02*
X28735714Y18835061D01*
X28735714Y18835061D02*
X28783333Y18787442D01*
X29640476Y18882680D02*
X29450000Y18882680D01*
X29450000Y18882680D02*
X29354762Y18835061D01*
X29354762Y18835061D02*
X29307143Y18787442D01*
X29307143Y18787442D02*
X29211905Y18644585D01*
X29211905Y18644585D02*
X29164286Y18454109D01*
X29164286Y18454109D02*
X29164286Y18073157D01*
X29164286Y18073157D02*
X29211905Y17977919D01*
X29211905Y17977919D02*
X29259524Y17930300D01*
X29259524Y17930300D02*
X29354762Y17882680D01*
X29354762Y17882680D02*
X29545238Y17882680D01*
X29545238Y17882680D02*
X29640476Y17930300D01*
X29640476Y17930300D02*
X29688095Y17977919D01*
X29688095Y17977919D02*
X29735714Y18073157D01*
X29735714Y18073157D02*
X29735714Y18311252D01*
X29735714Y18311252D02*
X29688095Y18406490D01*
X29688095Y18406490D02*
X29640476Y18454109D01*
X29640476Y18454109D02*
X29545238Y18501728D01*
X29545238Y18501728D02*
X29354762Y18501728D01*
X29354762Y18501728D02*
X29259524Y18454109D01*
X29259524Y18454109D02*
X29211905Y18406490D01*
X29211905Y18406490D02*
X29164286Y18311252D01*
X5833333Y29975180D02*
X5500000Y30451371D01*
X5261905Y29975180D02*
X5261905Y30975180D01*
X5261905Y30975180D02*
X5642857Y30975180D01*
X5642857Y30975180D02*
X5738095Y30927561D01*
X5738095Y30927561D02*
X5785714Y30879942D01*
X5785714Y30879942D02*
X5833333Y30784704D01*
X5833333Y30784704D02*
X5833333Y30641847D01*
X5833333Y30641847D02*
X5785714Y30546609D01*
X5785714Y30546609D02*
X5738095Y30498990D01*
X5738095Y30498990D02*
X5642857Y30451371D01*
X5642857Y30451371D02*
X5261905Y30451371D01*
X6404762Y30546609D02*
X6309524Y30594228D01*
X6309524Y30594228D02*
X6261905Y30641847D01*
X6261905Y30641847D02*
X6214286Y30737085D01*
X6214286Y30737085D02*
X6214286Y30784704D01*
X6214286Y30784704D02*
X6261905Y30879942D01*
X6261905Y30879942D02*
X6309524Y30927561D01*
X6309524Y30927561D02*
X6404762Y30975180D01*
X6404762Y30975180D02*
X6595238Y30975180D01*
X6595238Y30975180D02*
X6690476Y30927561D01*
X6690476Y30927561D02*
X6738095Y30879942D01*
X6738095Y30879942D02*
X6785714Y30784704D01*
X6785714Y30784704D02*
X6785714Y30737085D01*
X6785714Y30737085D02*
X6738095Y30641847D01*
X6738095Y30641847D02*
X6690476Y30594228D01*
X6690476Y30594228D02*
X6595238Y30546609D01*
X6595238Y30546609D02*
X6404762Y30546609D01*
X6404762Y30546609D02*
X6309524Y30498990D01*
X6309524Y30498990D02*
X6261905Y30451371D01*
X6261905Y30451371D02*
X6214286Y30356133D01*
X6214286Y30356133D02*
X6214286Y30165657D01*
X6214286Y30165657D02*
X6261905Y30070419D01*
X6261905Y30070419D02*
X6309524Y30022800D01*
X6309524Y30022800D02*
X6404762Y29975180D01*
X6404762Y29975180D02*
X6595238Y29975180D01*
X6595238Y29975180D02*
X6690476Y30022800D01*
X6690476Y30022800D02*
X6738095Y30070419D01*
X6738095Y30070419D02*
X6785714Y30165657D01*
X6785714Y30165657D02*
X6785714Y30356133D01*
X6785714Y30356133D02*
X6738095Y30451371D01*
X6738095Y30451371D02*
X6690476Y30498990D01*
X6690476Y30498990D02*
X6595238Y30546609D01*
X12833333Y37340419D02*
X12785714Y37292800D01*
X12785714Y37292800D02*
X12642857Y37245180D01*
X12642857Y37245180D02*
X12547619Y37245180D01*
X12547619Y37245180D02*
X12404762Y37292800D01*
X12404762Y37292800D02*
X12309524Y37388038D01*
X12309524Y37388038D02*
X12261905Y37483276D01*
X12261905Y37483276D02*
X12214286Y37673752D01*
X12214286Y37673752D02*
X12214286Y37816609D01*
X12214286Y37816609D02*
X12261905Y38007085D01*
X12261905Y38007085D02*
X12309524Y38102323D01*
X12309524Y38102323D02*
X12404762Y38197561D01*
X12404762Y38197561D02*
X12547619Y38245180D01*
X12547619Y38245180D02*
X12642857Y38245180D01*
X12642857Y38245180D02*
X12785714Y38197561D01*
X12785714Y38197561D02*
X12833333Y38149942D01*
X13785714Y37245180D02*
X13214286Y37245180D01*
X13500000Y37245180D02*
X13500000Y38245180D01*
X13500000Y38245180D02*
X13404762Y38102323D01*
X13404762Y38102323D02*
X13309524Y38007085D01*
X13309524Y38007085D02*
X13214286Y37959466D01*
X15278628Y31723809D02*
X15754819Y31723809D01*
X14754819Y31390476D02*
X15278628Y31723809D01*
X15278628Y31723809D02*
X14754819Y32057142D01*
X15754819Y32914285D02*
X15754819Y32342857D01*
X15754819Y32628571D02*
X14754819Y32628571D01*
X14754819Y32628571D02*
X14897676Y32533333D01*
X14897676Y32533333D02*
X14992914Y32438095D01*
X14992914Y32438095D02*
X15040533Y32342857D01*
X21759580Y32333333D02*
X21807200Y32285714D01*
X21807200Y32285714D02*
X21854819Y32142857D01*
X21854819Y32142857D02*
X21854819Y32047619D01*
X21854819Y32047619D02*
X21807200Y31904762D01*
X21807200Y31904762D02*
X21711961Y31809524D01*
X21711961Y31809524D02*
X21616723Y31761905D01*
X21616723Y31761905D02*
X21426247Y31714286D01*
X21426247Y31714286D02*
X21283390Y31714286D01*
X21283390Y31714286D02*
X21092914Y31761905D01*
X21092914Y31761905D02*
X20997676Y31809524D01*
X20997676Y31809524D02*
X20902438Y31904762D01*
X20902438Y31904762D02*
X20854819Y32047619D01*
X20854819Y32047619D02*
X20854819Y32142857D01*
X20854819Y32142857D02*
X20902438Y32285714D01*
X20902438Y32285714D02*
X20950057Y32333333D01*
X21188152Y33190476D02*
X21854819Y33190476D01*
X20807200Y32952381D02*
X21521485Y32714286D01*
X21521485Y32714286D02*
X21521485Y33333333D01*
X6083333Y15045180D02*
X5750000Y15521371D01*
X5511905Y15045180D02*
X5511905Y16045180D01*
X5511905Y16045180D02*
X5892857Y16045180D01*
X5892857Y16045180D02*
X5988095Y15997561D01*
X5988095Y15997561D02*
X6035714Y15949942D01*
X6035714Y15949942D02*
X6083333Y15854704D01*
X6083333Y15854704D02*
X6083333Y15711847D01*
X6083333Y15711847D02*
X6035714Y15616609D01*
X6035714Y15616609D02*
X5988095Y15568990D01*
X5988095Y15568990D02*
X5892857Y15521371D01*
X5892857Y15521371D02*
X5511905Y15521371D01*
X6940476Y16045180D02*
X6750000Y16045180D01*
X6750000Y16045180D02*
X6654762Y15997561D01*
X6654762Y15997561D02*
X6607143Y15949942D01*
X6607143Y15949942D02*
X6511905Y15807085D01*
X6511905Y15807085D02*
X6464286Y15616609D01*
X6464286Y15616609D02*
X6464286Y15235657D01*
X6464286Y15235657D02*
X6511905Y15140419D01*
X6511905Y15140419D02*
X6559524Y15092800D01*
X6559524Y15092800D02*
X6654762Y15045180D01*
X6654762Y15045180D02*
X6845238Y15045180D01*
X6845238Y15045180D02*
X6940476Y15092800D01*
X6940476Y15092800D02*
X6988095Y15140419D01*
X6988095Y15140419D02*
X7035714Y15235657D01*
X7035714Y15235657D02*
X7035714Y15473752D01*
X7035714Y15473752D02*
X6988095Y15568990D01*
X6988095Y15568990D02*
X6940476Y15616609D01*
X6940476Y15616609D02*
X6845238Y15664228D01*
X6845238Y15664228D02*
X6654762Y15664228D01*
X6654762Y15664228D02*
X6559524Y15616609D01*
X6559524Y15616609D02*
X6511905Y15568990D01*
X6511905Y15568990D02*
X6464286Y15473752D01*
X24404819Y40324405D02*
X23404819Y40324405D01*
X23404819Y40324405D02*
X23404819Y40562500D01*
X23404819Y40562500D02*
X23452438Y40705357D01*
X23452438Y40705357D02*
X23547676Y40800595D01*
X23547676Y40800595D02*
X23642914Y40848214D01*
X23642914Y40848214D02*
X23833390Y40895833D01*
X23833390Y40895833D02*
X23976247Y40895833D01*
X23976247Y40895833D02*
X24166723Y40848214D01*
X24166723Y40848214D02*
X24261961Y40800595D01*
X24261961Y40800595D02*
X24357200Y40705357D01*
X24357200Y40705357D02*
X24404819Y40562500D01*
X24404819Y40562500D02*
X24404819Y40324405D01*
X23404819Y41752976D02*
X23404819Y41562500D01*
X23404819Y41562500D02*
X23452438Y41467262D01*
X23452438Y41467262D02*
X23500057Y41419643D01*
X23500057Y41419643D02*
X23642914Y41324405D01*
X23642914Y41324405D02*
X23833390Y41276786D01*
X23833390Y41276786D02*
X24214342Y41276786D01*
X24214342Y41276786D02*
X24309580Y41324405D01*
X24309580Y41324405D02*
X24357200Y41372024D01*
X24357200Y41372024D02*
X24404819Y41467262D01*
X24404819Y41467262D02*
X24404819Y41657738D01*
X24404819Y41657738D02*
X24357200Y41752976D01*
X24357200Y41752976D02*
X24309580Y41800595D01*
X24309580Y41800595D02*
X24214342Y41848214D01*
X24214342Y41848214D02*
X23976247Y41848214D01*
X23976247Y41848214D02*
X23881009Y41800595D01*
X23881009Y41800595D02*
X23833390Y41752976D01*
X23833390Y41752976D02*
X23785771Y41657738D01*
X23785771Y41657738D02*
X23785771Y41467262D01*
X23785771Y41467262D02*
X23833390Y41372024D01*
X23833390Y41372024D02*
X23881009Y41324405D01*
X23881009Y41324405D02*
X23976247Y41276786D01*
X30833333Y35470419D02*
X30785714Y35422800D01*
X30785714Y35422800D02*
X30642857Y35375180D01*
X30642857Y35375180D02*
X30547619Y35375180D01*
X30547619Y35375180D02*
X30404762Y35422800D01*
X30404762Y35422800D02*
X30309524Y35518038D01*
X30309524Y35518038D02*
X30261905Y35613276D01*
X30261905Y35613276D02*
X30214286Y35803752D01*
X30214286Y35803752D02*
X30214286Y35946609D01*
X30214286Y35946609D02*
X30261905Y36137085D01*
X30261905Y36137085D02*
X30309524Y36232323D01*
X30309524Y36232323D02*
X30404762Y36327561D01*
X30404762Y36327561D02*
X30547619Y36375180D01*
X30547619Y36375180D02*
X30642857Y36375180D01*
X30642857Y36375180D02*
X30785714Y36327561D01*
X30785714Y36327561D02*
X30833333Y36279942D01*
X31309524Y35375180D02*
X31500000Y35375180D01*
X31500000Y35375180D02*
X31595238Y35422800D01*
X31595238Y35422800D02*
X31642857Y35470419D01*
X31642857Y35470419D02*
X31738095Y35613276D01*
X31738095Y35613276D02*
X31785714Y35803752D01*
X31785714Y35803752D02*
X31785714Y36184704D01*
X31785714Y36184704D02*
X31738095Y36279942D01*
X31738095Y36279942D02*
X31690476Y36327561D01*
X31690476Y36327561D02*
X31595238Y36375180D01*
X31595238Y36375180D02*
X31404762Y36375180D01*
X31404762Y36375180D02*
X31309524Y36327561D01*
X31309524Y36327561D02*
X31261905Y36279942D01*
X31261905Y36279942D02*
X31214286Y36184704D01*
X31214286Y36184704D02*
X31214286Y35946609D01*
X31214286Y35946609D02*
X31261905Y35851371D01*
X31261905Y35851371D02*
X31309524Y35803752D01*
X31309524Y35803752D02*
X31404762Y35756133D01*
X31404762Y35756133D02*
X31595238Y35756133D01*
X31595238Y35756133D02*
X31690476Y35803752D01*
X31690476Y35803752D02*
X31738095Y35851371D01*
X31738095Y35851371D02*
X31785714Y35946609D01*
X1461905Y29945180D02*
X1461905Y30945180D01*
X1461905Y30945180D02*
X1700000Y30945180D01*
X1700000Y30945180D02*
X1842857Y30897561D01*
X1842857Y30897561D02*
X1938095Y30802323D01*
X1938095Y30802323D02*
X1985714Y30707085D01*
X1985714Y30707085D02*
X2033333Y30516609D01*
X2033333Y30516609D02*
X2033333Y30373752D01*
X2033333Y30373752D02*
X1985714Y30183276D01*
X1985714Y30183276D02*
X1938095Y30088038D01*
X1938095Y30088038D02*
X1842857Y29992800D01*
X1842857Y29992800D02*
X1700000Y29945180D01*
X1700000Y29945180D02*
X1461905Y29945180D01*
X2890476Y30611847D02*
X2890476Y29945180D01*
X2652381Y30992800D02*
X2414286Y30278514D01*
X2414286Y30278514D02*
X3033333Y30278514D01*
X16859580Y33933333D02*
X16907200Y33885714D01*
X16907200Y33885714D02*
X16954819Y33742857D01*
X16954819Y33742857D02*
X16954819Y33647619D01*
X16954819Y33647619D02*
X16907200Y33504762D01*
X16907200Y33504762D02*
X16811961Y33409524D01*
X16811961Y33409524D02*
X16716723Y33361905D01*
X16716723Y33361905D02*
X16526247Y33314286D01*
X16526247Y33314286D02*
X16383390Y33314286D01*
X16383390Y33314286D02*
X16192914Y33361905D01*
X16192914Y33361905D02*
X16097676Y33409524D01*
X16097676Y33409524D02*
X16002438Y33504762D01*
X16002438Y33504762D02*
X15954819Y33647619D01*
X15954819Y33647619D02*
X15954819Y33742857D01*
X15954819Y33742857D02*
X16002438Y33885714D01*
X16002438Y33885714D02*
X16050057Y33933333D01*
X15954819Y34838095D02*
X15954819Y34361905D01*
X15954819Y34361905D02*
X16431009Y34314286D01*
X16431009Y34314286D02*
X16383390Y34361905D01*
X16383390Y34361905D02*
X16335771Y34457143D01*
X16335771Y34457143D02*
X16335771Y34695238D01*
X16335771Y34695238D02*
X16383390Y34790476D01*
X16383390Y34790476D02*
X16431009Y34838095D01*
X16431009Y34838095D02*
X16526247Y34885714D01*
X16526247Y34885714D02*
X16764342Y34885714D01*
X16764342Y34885714D02*
X16859580Y34838095D01*
X16859580Y34838095D02*
X16907200Y34790476D01*
X16907200Y34790476D02*
X16954819Y34695238D01*
X16954819Y34695238D02*
X16954819Y34457143D01*
X16954819Y34457143D02*
X16907200Y34361905D01*
X16907200Y34361905D02*
X16859580Y34314286D01*
X5833333Y32975180D02*
X5500000Y33451371D01*
X5261905Y32975180D02*
X5261905Y33975180D01*
X5261905Y33975180D02*
X5642857Y33975180D01*
X5642857Y33975180D02*
X5738095Y33927561D01*
X5738095Y33927561D02*
X5785714Y33879942D01*
X5785714Y33879942D02*
X5833333Y33784704D01*
X5833333Y33784704D02*
X5833333Y33641847D01*
X5833333Y33641847D02*
X5785714Y33546609D01*
X5785714Y33546609D02*
X5738095Y33498990D01*
X5738095Y33498990D02*
X5642857Y33451371D01*
X5642857Y33451371D02*
X5261905Y33451371D01*
X6309524Y32975180D02*
X6500000Y32975180D01*
X6500000Y32975180D02*
X6595238Y33022800D01*
X6595238Y33022800D02*
X6642857Y33070419D01*
X6642857Y33070419D02*
X6738095Y33213276D01*
X6738095Y33213276D02*
X6785714Y33403752D01*
X6785714Y33403752D02*
X6785714Y33784704D01*
X6785714Y33784704D02*
X6738095Y33879942D01*
X6738095Y33879942D02*
X6690476Y33927561D01*
X6690476Y33927561D02*
X6595238Y33975180D01*
X6595238Y33975180D02*
X6404762Y33975180D01*
X6404762Y33975180D02*
X6309524Y33927561D01*
X6309524Y33927561D02*
X6261905Y33879942D01*
X6261905Y33879942D02*
X6214286Y33784704D01*
X6214286Y33784704D02*
X6214286Y33546609D01*
X6214286Y33546609D02*
X6261905Y33451371D01*
X6261905Y33451371D02*
X6309524Y33403752D01*
X6309524Y33403752D02*
X6404762Y33356133D01*
X6404762Y33356133D02*
X6595238Y33356133D01*
X6595238Y33356133D02*
X6690476Y33403752D01*
X6690476Y33403752D02*
X6738095Y33451371D01*
X6738095Y33451371D02*
X6785714Y33546609D01*
X3933333Y23910419D02*
X3885714Y23862800D01*
X3885714Y23862800D02*
X3742857Y23815180D01*
X3742857Y23815180D02*
X3647619Y23815180D01*
X3647619Y23815180D02*
X3504762Y23862800D01*
X3504762Y23862800D02*
X3409524Y23958038D01*
X3409524Y23958038D02*
X3361905Y24053276D01*
X3361905Y24053276D02*
X3314286Y24243752D01*
X3314286Y24243752D02*
X3314286Y24386609D01*
X3314286Y24386609D02*
X3361905Y24577085D01*
X3361905Y24577085D02*
X3409524Y24672323D01*
X3409524Y24672323D02*
X3504762Y24767561D01*
X3504762Y24767561D02*
X3647619Y24815180D01*
X3647619Y24815180D02*
X3742857Y24815180D01*
X3742857Y24815180D02*
X3885714Y24767561D01*
X3885714Y24767561D02*
X3933333Y24719942D01*
X4266667Y24815180D02*
X4885714Y24815180D01*
X4885714Y24815180D02*
X4552381Y24434228D01*
X4552381Y24434228D02*
X4695238Y24434228D01*
X4695238Y24434228D02*
X4790476Y24386609D01*
X4790476Y24386609D02*
X4838095Y24338990D01*
X4838095Y24338990D02*
X4885714Y24243752D01*
X4885714Y24243752D02*
X4885714Y24005657D01*
X4885714Y24005657D02*
X4838095Y23910419D01*
X4838095Y23910419D02*
X4790476Y23862800D01*
X4790476Y23862800D02*
X4695238Y23815180D01*
X4695238Y23815180D02*
X4409524Y23815180D01*
X4409524Y23815180D02*
X4314286Y23862800D01*
X4314286Y23862800D02*
X4266667Y23910419D01*
X23359580Y17357142D02*
X23407200Y17309523D01*
X23407200Y17309523D02*
X23454819Y17166666D01*
X23454819Y17166666D02*
X23454819Y17071428D01*
X23454819Y17071428D02*
X23407200Y16928571D01*
X23407200Y16928571D02*
X23311961Y16833333D01*
X23311961Y16833333D02*
X23216723Y16785714D01*
X23216723Y16785714D02*
X23026247Y16738095D01*
X23026247Y16738095D02*
X22883390Y16738095D01*
X22883390Y16738095D02*
X22692914Y16785714D01*
X22692914Y16785714D02*
X22597676Y16833333D01*
X22597676Y16833333D02*
X22502438Y16928571D01*
X22502438Y16928571D02*
X22454819Y17071428D01*
X22454819Y17071428D02*
X22454819Y17166666D01*
X22454819Y17166666D02*
X22502438Y17309523D01*
X22502438Y17309523D02*
X22550057Y17357142D01*
X23454819Y18309523D02*
X23454819Y17738095D01*
X23454819Y18023809D02*
X22454819Y18023809D01*
X22454819Y18023809D02*
X22597676Y17928571D01*
X22597676Y17928571D02*
X22692914Y17833333D01*
X22692914Y17833333D02*
X22740533Y17738095D01*
X22454819Y18928571D02*
X22454819Y19023809D01*
X22454819Y19023809D02*
X22502438Y19119047D01*
X22502438Y19119047D02*
X22550057Y19166666D01*
X22550057Y19166666D02*
X22645295Y19214285D01*
X22645295Y19214285D02*
X22835771Y19261904D01*
X22835771Y19261904D02*
X23073866Y19261904D01*
X23073866Y19261904D02*
X23264342Y19214285D01*
X23264342Y19214285D02*
X23359580Y19166666D01*
X23359580Y19166666D02*
X23407200Y19119047D01*
X23407200Y19119047D02*
X23454819Y19023809D01*
X23454819Y19023809D02*
X23454819Y18928571D01*
X23454819Y18928571D02*
X23407200Y18833333D01*
X23407200Y18833333D02*
X23359580Y18785714D01*
X23359580Y18785714D02*
X23264342Y18738095D01*
X23264342Y18738095D02*
X23073866Y18690476D01*
X23073866Y18690476D02*
X22835771Y18690476D01*
X22835771Y18690476D02*
X22645295Y18738095D01*
X22645295Y18738095D02*
X22550057Y18785714D01*
X22550057Y18785714D02*
X22502438Y18833333D01*
X22502438Y18833333D02*
X22454819Y18928571D01*
X16988095Y18945180D02*
X16988095Y18135657D01*
X16988095Y18135657D02*
X17035714Y18040419D01*
X17035714Y18040419D02*
X17083333Y17992800D01*
X17083333Y17992800D02*
X17178571Y17945180D01*
X17178571Y17945180D02*
X17369047Y17945180D01*
X17369047Y17945180D02*
X17464285Y17992800D01*
X17464285Y17992800D02*
X17511904Y18040419D01*
X17511904Y18040419D02*
X17559523Y18135657D01*
X17559523Y18135657D02*
X17559523Y18945180D01*
X18464285Y18611847D02*
X18464285Y17945180D01*
X18226190Y18992800D02*
X17988095Y18278514D01*
X17988095Y18278514D02*
X18607142Y18278514D01*
X32133333Y27840419D02*
X32085714Y27792800D01*
X32085714Y27792800D02*
X31942857Y27745180D01*
X31942857Y27745180D02*
X31847619Y27745180D01*
X31847619Y27745180D02*
X31704762Y27792800D01*
X31704762Y27792800D02*
X31609524Y27888038D01*
X31609524Y27888038D02*
X31561905Y27983276D01*
X31561905Y27983276D02*
X31514286Y28173752D01*
X31514286Y28173752D02*
X31514286Y28316609D01*
X31514286Y28316609D02*
X31561905Y28507085D01*
X31561905Y28507085D02*
X31609524Y28602323D01*
X31609524Y28602323D02*
X31704762Y28697561D01*
X31704762Y28697561D02*
X31847619Y28745180D01*
X31847619Y28745180D02*
X31942857Y28745180D01*
X31942857Y28745180D02*
X32085714Y28697561D01*
X32085714Y28697561D02*
X32133333Y28649942D01*
X32466667Y28745180D02*
X33133333Y28745180D01*
X33133333Y28745180D02*
X32704762Y27745180D01*
X1474405Y39045180D02*
X1474405Y40045180D01*
X1474405Y40045180D02*
X1712500Y40045180D01*
X1712500Y40045180D02*
X1855357Y39997561D01*
X1855357Y39997561D02*
X1950595Y39902323D01*
X1950595Y39902323D02*
X1998214Y39807085D01*
X1998214Y39807085D02*
X2045833Y39616609D01*
X2045833Y39616609D02*
X2045833Y39473752D01*
X2045833Y39473752D02*
X1998214Y39283276D01*
X1998214Y39283276D02*
X1950595Y39188038D01*
X1950595Y39188038D02*
X1855357Y39092800D01*
X1855357Y39092800D02*
X1712500Y39045180D01*
X1712500Y39045180D02*
X1474405Y39045180D01*
X2998214Y39045180D02*
X2426786Y39045180D01*
X2712500Y39045180D02*
X2712500Y40045180D01*
X2712500Y40045180D02*
X2617262Y39902323D01*
X2617262Y39902323D02*
X2522024Y39807085D01*
X2522024Y39807085D02*
X2426786Y39759466D01*
X23142319Y24488095D02*
X23951842Y24488095D01*
X23951842Y24488095D02*
X24047080Y24535714D01*
X24047080Y24535714D02*
X24094700Y24583333D01*
X24094700Y24583333D02*
X24142319Y24678571D01*
X24142319Y24678571D02*
X24142319Y24869047D01*
X24142319Y24869047D02*
X24094700Y24964285D01*
X24094700Y24964285D02*
X24047080Y25011904D01*
X24047080Y25011904D02*
X23951842Y25059523D01*
X23951842Y25059523D02*
X23142319Y25059523D01*
X24142319Y26059523D02*
X24142319Y25488095D01*
X24142319Y25773809D02*
X23142319Y25773809D01*
X23142319Y25773809D02*
X23285176Y25678571D01*
X23285176Y25678571D02*
X23380414Y25583333D01*
X23380414Y25583333D02*
X23428033Y25488095D01*
X1474405Y36045180D02*
X1474405Y37045180D01*
X1474405Y37045180D02*
X1712500Y37045180D01*
X1712500Y37045180D02*
X1855357Y36997561D01*
X1855357Y36997561D02*
X1950595Y36902323D01*
X1950595Y36902323D02*
X1998214Y36807085D01*
X1998214Y36807085D02*
X2045833Y36616609D01*
X2045833Y36616609D02*
X2045833Y36473752D01*
X2045833Y36473752D02*
X1998214Y36283276D01*
X1998214Y36283276D02*
X1950595Y36188038D01*
X1950595Y36188038D02*
X1855357Y36092800D01*
X1855357Y36092800D02*
X1712500Y36045180D01*
X1712500Y36045180D02*
X1474405Y36045180D01*
X2379167Y37045180D02*
X2998214Y37045180D01*
X2998214Y37045180D02*
X2664881Y36664228D01*
X2664881Y36664228D02*
X2807738Y36664228D01*
X2807738Y36664228D02*
X2902976Y36616609D01*
X2902976Y36616609D02*
X2950595Y36568990D01*
X2950595Y36568990D02*
X2998214Y36473752D01*
X2998214Y36473752D02*
X2998214Y36235657D01*
X2998214Y36235657D02*
X2950595Y36140419D01*
X2950595Y36140419D02*
X2902976Y36092800D01*
X2902976Y36092800D02*
X2807738Y36045180D01*
X2807738Y36045180D02*
X2522024Y36045180D01*
X2522024Y36045180D02*
X2426786Y36092800D01*
X2426786Y36092800D02*
X2379167Y36140419D01*
X5833333Y45045180D02*
X5500000Y45521371D01*
X5261905Y45045180D02*
X5261905Y46045180D01*
X5261905Y46045180D02*
X5642857Y46045180D01*
X5642857Y46045180D02*
X5738095Y45997561D01*
X5738095Y45997561D02*
X5785714Y45949942D01*
X5785714Y45949942D02*
X5833333Y45854704D01*
X5833333Y45854704D02*
X5833333Y45711847D01*
X5833333Y45711847D02*
X5785714Y45616609D01*
X5785714Y45616609D02*
X5738095Y45568990D01*
X5738095Y45568990D02*
X5642857Y45521371D01*
X5642857Y45521371D02*
X5261905Y45521371D01*
X6214286Y45949942D02*
X6261905Y45997561D01*
X6261905Y45997561D02*
X6357143Y46045180D01*
X6357143Y46045180D02*
X6595238Y46045180D01*
X6595238Y46045180D02*
X6690476Y45997561D01*
X6690476Y45997561D02*
X6738095Y45949942D01*
X6738095Y45949942D02*
X6785714Y45854704D01*
X6785714Y45854704D02*
X6785714Y45759466D01*
X6785714Y45759466D02*
X6738095Y45616609D01*
X6738095Y45616609D02*
X6166667Y45045180D01*
X6166667Y45045180D02*
X6785714Y45045180D01*
X1474405Y45045180D02*
X1474405Y46045180D01*
X1474405Y46045180D02*
X1712500Y46045180D01*
X1712500Y46045180D02*
X1855357Y45997561D01*
X1855357Y45997561D02*
X1950595Y45902323D01*
X1950595Y45902323D02*
X1998214Y45807085D01*
X1998214Y45807085D02*
X2045833Y45616609D01*
X2045833Y45616609D02*
X2045833Y45473752D01*
X2045833Y45473752D02*
X1998214Y45283276D01*
X1998214Y45283276D02*
X1950595Y45188038D01*
X1950595Y45188038D02*
X1855357Y45092800D01*
X1855357Y45092800D02*
X1712500Y45045180D01*
X1712500Y45045180D02*
X1474405Y45045180D01*
X2426786Y45949942D02*
X2474405Y45997561D01*
X2474405Y45997561D02*
X2569643Y46045180D01*
X2569643Y46045180D02*
X2807738Y46045180D01*
X2807738Y46045180D02*
X2902976Y45997561D01*
X2902976Y45997561D02*
X2950595Y45949942D01*
X2950595Y45949942D02*
X2998214Y45854704D01*
X2998214Y45854704D02*
X2998214Y45759466D01*
X2998214Y45759466D02*
X2950595Y45616609D01*
X2950595Y45616609D02*
X2379167Y45045180D01*
X2379167Y45045180D02*
X2998214Y45045180D01*
X1461905Y32945180D02*
X1461905Y33945180D01*
X1461905Y33945180D02*
X1700000Y33945180D01*
X1700000Y33945180D02*
X1842857Y33897561D01*
X1842857Y33897561D02*
X1938095Y33802323D01*
X1938095Y33802323D02*
X1985714Y33707085D01*
X1985714Y33707085D02*
X2033333Y33516609D01*
X2033333Y33516609D02*
X2033333Y33373752D01*
X2033333Y33373752D02*
X1985714Y33183276D01*
X1985714Y33183276D02*
X1938095Y33088038D01*
X1938095Y33088038D02*
X1842857Y32992800D01*
X1842857Y32992800D02*
X1700000Y32945180D01*
X1700000Y32945180D02*
X1461905Y32945180D01*
X2938095Y33945180D02*
X2461905Y33945180D01*
X2461905Y33945180D02*
X2414286Y33468990D01*
X2414286Y33468990D02*
X2461905Y33516609D01*
X2461905Y33516609D02*
X2557143Y33564228D01*
X2557143Y33564228D02*
X2795238Y33564228D01*
X2795238Y33564228D02*
X2890476Y33516609D01*
X2890476Y33516609D02*
X2938095Y33468990D01*
X2938095Y33468990D02*
X2985714Y33373752D01*
X2985714Y33373752D02*
X2985714Y33135657D01*
X2985714Y33135657D02*
X2938095Y33040419D01*
X2938095Y33040419D02*
X2890476Y32992800D01*
X2890476Y32992800D02*
X2795238Y32945180D01*
X2795238Y32945180D02*
X2557143Y32945180D01*
X2557143Y32945180D02*
X2461905Y32992800D01*
X2461905Y32992800D02*
X2414286Y33040419D01*
X5833333Y39045180D02*
X5500000Y39521371D01*
X5261905Y39045180D02*
X5261905Y40045180D01*
X5261905Y40045180D02*
X5642857Y40045180D01*
X5642857Y40045180D02*
X5738095Y39997561D01*
X5738095Y39997561D02*
X5785714Y39949942D01*
X5785714Y39949942D02*
X5833333Y39854704D01*
X5833333Y39854704D02*
X5833333Y39711847D01*
X5833333Y39711847D02*
X5785714Y39616609D01*
X5785714Y39616609D02*
X5738095Y39568990D01*
X5738095Y39568990D02*
X5642857Y39521371D01*
X5642857Y39521371D02*
X5261905Y39521371D01*
X6785714Y39045180D02*
X6214286Y39045180D01*
X6500000Y39045180D02*
X6500000Y40045180D01*
X6500000Y40045180D02*
X6404762Y39902323D01*
X6404762Y39902323D02*
X6309524Y39807085D01*
X6309524Y39807085D02*
X6214286Y39759466D01*
X5333333Y35975180D02*
X5000000Y36451371D01*
X4761905Y35975180D02*
X4761905Y36975180D01*
X4761905Y36975180D02*
X5142857Y36975180D01*
X5142857Y36975180D02*
X5238095Y36927561D01*
X5238095Y36927561D02*
X5285714Y36879942D01*
X5285714Y36879942D02*
X5333333Y36784704D01*
X5333333Y36784704D02*
X5333333Y36641847D01*
X5333333Y36641847D02*
X5285714Y36546609D01*
X5285714Y36546609D02*
X5238095Y36498990D01*
X5238095Y36498990D02*
X5142857Y36451371D01*
X5142857Y36451371D02*
X4761905Y36451371D01*
X6238095Y36975180D02*
X5761905Y36975180D01*
X5761905Y36975180D02*
X5714286Y36498990D01*
X5714286Y36498990D02*
X5761905Y36546609D01*
X5761905Y36546609D02*
X5857143Y36594228D01*
X5857143Y36594228D02*
X6095238Y36594228D01*
X6095238Y36594228D02*
X6190476Y36546609D01*
X6190476Y36546609D02*
X6238095Y36498990D01*
X6238095Y36498990D02*
X6285714Y36403752D01*
X6285714Y36403752D02*
X6285714Y36165657D01*
X6285714Y36165657D02*
X6238095Y36070419D01*
X6238095Y36070419D02*
X6190476Y36022800D01*
X6190476Y36022800D02*
X6095238Y35975180D01*
X6095238Y35975180D02*
X5857143Y35975180D01*
X5857143Y35975180D02*
X5761905Y36022800D01*
X5761905Y36022800D02*
X5714286Y36070419D01*
X30733333Y38570419D02*
X30685714Y38522800D01*
X30685714Y38522800D02*
X30542857Y38475180D01*
X30542857Y38475180D02*
X30447619Y38475180D01*
X30447619Y38475180D02*
X30304762Y38522800D01*
X30304762Y38522800D02*
X30209524Y38618038D01*
X30209524Y38618038D02*
X30161905Y38713276D01*
X30161905Y38713276D02*
X30114286Y38903752D01*
X30114286Y38903752D02*
X30114286Y39046609D01*
X30114286Y39046609D02*
X30161905Y39237085D01*
X30161905Y39237085D02*
X30209524Y39332323D01*
X30209524Y39332323D02*
X30304762Y39427561D01*
X30304762Y39427561D02*
X30447619Y39475180D01*
X30447619Y39475180D02*
X30542857Y39475180D01*
X30542857Y39475180D02*
X30685714Y39427561D01*
X30685714Y39427561D02*
X30733333Y39379942D01*
X31304762Y39046609D02*
X31209524Y39094228D01*
X31209524Y39094228D02*
X31161905Y39141847D01*
X31161905Y39141847D02*
X31114286Y39237085D01*
X31114286Y39237085D02*
X31114286Y39284704D01*
X31114286Y39284704D02*
X31161905Y39379942D01*
X31161905Y39379942D02*
X31209524Y39427561D01*
X31209524Y39427561D02*
X31304762Y39475180D01*
X31304762Y39475180D02*
X31495238Y39475180D01*
X31495238Y39475180D02*
X31590476Y39427561D01*
X31590476Y39427561D02*
X31638095Y39379942D01*
X31638095Y39379942D02*
X31685714Y39284704D01*
X31685714Y39284704D02*
X31685714Y39237085D01*
X31685714Y39237085D02*
X31638095Y39141847D01*
X31638095Y39141847D02*
X31590476Y39094228D01*
X31590476Y39094228D02*
X31495238Y39046609D01*
X31495238Y39046609D02*
X31304762Y39046609D01*
X31304762Y39046609D02*
X31209524Y38998990D01*
X31209524Y38998990D02*
X31161905Y38951371D01*
X31161905Y38951371D02*
X31114286Y38856133D01*
X31114286Y38856133D02*
X31114286Y38665657D01*
X31114286Y38665657D02*
X31161905Y38570419D01*
X31161905Y38570419D02*
X31209524Y38522800D01*
X31209524Y38522800D02*
X31304762Y38475180D01*
X31304762Y38475180D02*
X31495238Y38475180D01*
X31495238Y38475180D02*
X31590476Y38522800D01*
X31590476Y38522800D02*
X31638095Y38570419D01*
X31638095Y38570419D02*
X31685714Y38665657D01*
X31685714Y38665657D02*
X31685714Y38856133D01*
X31685714Y38856133D02*
X31638095Y38951371D01*
X31638095Y38951371D02*
X31590476Y38998990D01*
X31590476Y38998990D02*
X31495238Y39046609D01*
X12433333Y28540419D02*
X12385714Y28492800D01*
X12385714Y28492800D02*
X12242857Y28445180D01*
X12242857Y28445180D02*
X12147619Y28445180D01*
X12147619Y28445180D02*
X12004762Y28492800D01*
X12004762Y28492800D02*
X11909524Y28588038D01*
X11909524Y28588038D02*
X11861905Y28683276D01*
X11861905Y28683276D02*
X11814286Y28873752D01*
X11814286Y28873752D02*
X11814286Y29016609D01*
X11814286Y29016609D02*
X11861905Y29207085D01*
X11861905Y29207085D02*
X11909524Y29302323D01*
X11909524Y29302323D02*
X12004762Y29397561D01*
X12004762Y29397561D02*
X12147619Y29445180D01*
X12147619Y29445180D02*
X12242857Y29445180D01*
X12242857Y29445180D02*
X12385714Y29397561D01*
X12385714Y29397561D02*
X12433333Y29349942D01*
X12814286Y29349942D02*
X12861905Y29397561D01*
X12861905Y29397561D02*
X12957143Y29445180D01*
X12957143Y29445180D02*
X13195238Y29445180D01*
X13195238Y29445180D02*
X13290476Y29397561D01*
X13290476Y29397561D02*
X13338095Y29349942D01*
X13338095Y29349942D02*
X13385714Y29254704D01*
X13385714Y29254704D02*
X13385714Y29159466D01*
X13385714Y29159466D02*
X13338095Y29016609D01*
X13338095Y29016609D02*
X12766667Y28445180D01*
X12766667Y28445180D02*
X13385714Y28445180D01*
D13*
%TO.C,U5*%
X30150000Y28410000D02*
X33910000Y28410000D01*
X30150000Y21590000D02*
X33910000Y21590000D01*
X33910000Y28410000D02*
X33910000Y27150000D01*
X33910000Y21590000D02*
X33910000Y22850000D01*
X28870000Y28310000D02*
X28630000Y28640000D01*
X29110000Y28640000D01*
X28870000Y28310000D01*
G36*
X28870000Y28310000D02*
G01*
X28630000Y28640000D01*
X29110000Y28640000D01*
X28870000Y28310000D01*
G37*
%TO.C,C11*%
X25665000Y25638748D02*
X25665000Y26161252D01*
X27135000Y25638748D02*
X27135000Y26161252D01*
%TO.C,J1*%
X13580000Y57995000D02*
X13580000Y56480000D01*
X13580000Y54090000D02*
X13580000Y49865000D01*
X13580000Y49865000D02*
X16010000Y49865000D01*
X14580000Y59995000D02*
X13580000Y57995000D01*
X16010000Y49865000D02*
X16010000Y48405000D01*
X20015000Y59995000D02*
X14580000Y59995000D01*
X20015000Y59995000D02*
X25450000Y59995000D01*
X25450000Y59995000D02*
X26450000Y57995000D01*
X26450000Y57995000D02*
X26450000Y56480000D01*
X26450000Y54090000D02*
X26450000Y49865000D01*
X26450000Y49865000D02*
X24020000Y49865000D01*
%TO.C,J2*%
X1670000Y22950000D02*
X3000000Y22950000D01*
X1670000Y21620000D02*
X1670000Y22950000D01*
X1670000Y20350000D02*
X1670000Y10130000D01*
X1670000Y20350000D02*
X4330000Y20350000D01*
X1670000Y10130000D02*
X4330000Y10130000D01*
X4330000Y20350000D02*
X4330000Y10130000D01*
%TO.C,J3*%
X22450000Y15350000D02*
X22450000Y14050000D01*
X22750000Y15050000D02*
X24750000Y15050000D01*
X22750000Y550000D02*
X22750000Y15050000D01*
X24150000Y15350000D02*
X22450000Y15350000D01*
X29950000Y15050000D02*
X31950000Y15050000D01*
X31950000Y15050000D02*
X31950000Y13750000D01*
X31950000Y9150000D02*
X31950000Y550000D01*
X31950000Y550000D02*
X22750000Y550000D01*
%TO.C,J4*%
X20315000Y10420000D02*
X27685000Y10420000D01*
X20315000Y1290000D02*
X20315000Y10420000D01*
X21315000Y290000D02*
X20315000Y1290000D01*
X26685000Y290000D02*
X21315000Y290000D01*
X27685000Y10420000D02*
X27685000Y1290000D01*
X27685000Y1290000D02*
X26685000Y290000D01*
%TO.C,P2*%
X5670000Y23870000D02*
X7000000Y23870000D01*
X5670000Y22540000D02*
X5670000Y23870000D01*
X5670000Y21270000D02*
X5670000Y18670000D01*
X5670000Y21270000D02*
X8330000Y21270000D01*
X5670000Y18670000D02*
X8330000Y18670000D01*
X8330000Y21270000D02*
X8330000Y18670000D01*
%TO.C,R7*%
X24765000Y46472936D02*
X24765000Y46927064D01*
X26235000Y46472936D02*
X26235000Y46927064D01*
%TO.C,TP1*%
X27800000Y19000000D02*
G75*
G02*
X24800000Y19000000I-1500000J0D01*
G01*
X24800000Y19000000D02*
G75*
G02*
X27800000Y19000000I1500000J0D01*
G01*
%TO.C,TP2*%
X36500000Y39000000D02*
G75*
G02*
X33500000Y39000000I-1500000J0D01*
G01*
X33500000Y39000000D02*
G75*
G02*
X36500000Y39000000I1500000J0D01*
G01*
%TO.C,TP3*%
X9500000Y51000000D02*
G75*
G02*
X6500000Y51000000I-1500000J0D01*
G01*
X6500000Y51000000D02*
G75*
G02*
X9500000Y51000000I1500000J0D01*
G01*
%TO.C,TP4*%
X13500000Y14000000D02*
G75*
G02*
X10500000Y14000000I-1500000J0D01*
G01*
X10500000Y14000000D02*
G75*
G02*
X13500000Y14000000I1500000J0D01*
G01*
%TO.C,TP5*%
X13500000Y18000000D02*
G75*
G02*
X10500000Y18000000I-1500000J0D01*
G01*
X10500000Y18000000D02*
G75*
G02*
X13500000Y18000000I1500000J0D01*
G01*
%TO.C,X1*%
X18670000Y4100000D02*
X18670000Y5800000D01*
X9330000Y4100000D02*
X9330000Y5800000D01*
%TO.C,R3*%
X17762742Y9777500D02*
X18237258Y9777500D01*
X17762742Y10822500D02*
X18237258Y10822500D01*
%TO.C,R4*%
X11137258Y9777500D02*
X10662742Y9777500D01*
X11137258Y10822500D02*
X10662742Y10822500D01*
%TO.C,U3*%
X23535000Y32300000D02*
X23205000Y32060000D01*
X23205000Y32540000D01*
X23535000Y32300000D01*
G36*
X23535000Y32300000D02*
G01*
X23205000Y32060000D01*
X23205000Y32540000D01*
X23535000Y32300000D01*
G37*
X28560000Y35000000D02*
X28560000Y33050000D01*
X28560000Y35000000D02*
X28560000Y36950000D01*
X23440000Y35000000D02*
X23440000Y33050000D01*
X23440000Y35000000D02*
X23440000Y36950000D01*
%TO.C,C6*%
X29788748Y19265000D02*
X30311252Y19265000D01*
X29788748Y20735000D02*
X30311252Y20735000D01*
%TO.C,R8*%
X5762742Y28477500D02*
X6237258Y28477500D01*
X5762742Y29522500D02*
X6237258Y29522500D01*
%TO.C,C1*%
X12978080Y35740000D02*
X12696920Y35740000D01*
X12978080Y36760000D02*
X12696920Y36760000D01*
%TO.C,Y1*%
X14487500Y31250000D02*
X14487500Y35250000D01*
X11187500Y31250000D02*
X14487500Y31250000D01*
%TO.C,C4*%
X20347500Y33109420D02*
X20347500Y33390580D01*
X19327500Y33109420D02*
X19327500Y33390580D01*
%TO.C,R6*%
X6762742Y16477500D02*
X7237258Y16477500D01*
X6762742Y17522500D02*
X7237258Y17522500D01*
%TO.C,D6*%
X24840000Y39900000D02*
X24510000Y39660000D01*
X24510000Y40140000D01*
X24840000Y39900000D01*
G36*
X24840000Y39900000D02*
G01*
X24510000Y39660000D01*
X24510000Y40140000D01*
X24840000Y39900000D01*
G37*
X27910000Y41062500D02*
X27910000Y40412500D01*
X27910000Y41062500D02*
X27910000Y41712500D01*
X24790000Y41062500D02*
X24790000Y40412500D01*
X24790000Y41062500D02*
X24790000Y41712500D01*
%TO.C,C9*%
X30859420Y33890000D02*
X31140580Y33890000D01*
X30859420Y34910000D02*
X31140580Y34910000D01*
%TO.C,D4*%
X3697500Y28265000D02*
X3697500Y29735000D01*
X3697500Y29735000D02*
X1412500Y29735000D01*
X1412500Y28265000D02*
X3697500Y28265000D01*
%TO.C,C5*%
X18347500Y33109420D02*
X18347500Y33390580D01*
X17327500Y33109420D02*
X17327500Y33390580D01*
%TO.C,R9*%
X5762742Y31477500D02*
X6237258Y31477500D01*
X5762742Y32522500D02*
X6237258Y32522500D01*
%TO.C,C3*%
X4240580Y25190000D02*
X3959420Y25190000D01*
X4240580Y26210000D02*
X3959420Y26210000D01*
%TO.C,C10*%
X21935000Y16738748D02*
X21935000Y17261252D01*
X20465000Y16738748D02*
X20465000Y17261252D01*
%TO.C,U4*%
X16637500Y17510000D02*
X16397500Y17840000D01*
X16877500Y17840000D01*
X16637500Y17510000D01*
G36*
X16637500Y17510000D02*
G01*
X16397500Y17840000D01*
X16877500Y17840000D01*
X16637500Y17510000D01*
G37*
X18000000Y14440000D02*
X18775000Y14440000D01*
X18000000Y14440000D02*
X17225000Y14440000D01*
X18000000Y17560000D02*
X18775000Y17560000D01*
X18000000Y17560000D02*
X17225000Y17560000D01*
%TO.C,C7*%
X32038748Y30535000D02*
X32561252Y30535000D01*
X32038748Y29065000D02*
X32561252Y29065000D01*
%TO.C,D1*%
X3697500Y40265000D02*
X3697500Y41735000D01*
X3697500Y41735000D02*
X1412500Y41735000D01*
X1412500Y40265000D02*
X3697500Y40265000D01*
%TO.C,U1*%
X21467500Y29110000D02*
X20997500Y29450000D01*
X21467500Y29790000D01*
X21467500Y29110000D01*
G36*
X21467500Y29110000D02*
G01*
X20997500Y29450000D01*
X21467500Y29790000D01*
X21467500Y29110000D01*
G37*
X21447500Y21640000D02*
X20997500Y21640000D01*
X21447500Y22090000D02*
X21447500Y21640000D01*
X21447500Y28410000D02*
X21447500Y28860000D01*
X21447500Y28860000D02*
X20997500Y28860000D01*
X14227500Y21640000D02*
X14677500Y21640000D01*
X14227500Y22090000D02*
X14227500Y21640000D01*
X14227500Y28410000D02*
X14227500Y28860000D01*
X14227500Y28860000D02*
X14677500Y28860000D01*
%TO.C,D3*%
X3697500Y34265000D02*
X3697500Y35735000D01*
X3697500Y35735000D02*
X1412500Y35735000D01*
X1412500Y34265000D02*
X3697500Y34265000D01*
%TO.C,R2*%
X5762742Y43477500D02*
X6237258Y43477500D01*
X5762742Y44522500D02*
X6237258Y44522500D01*
%TO.C,D2*%
X3697500Y43265000D02*
X3697500Y44735000D01*
X3697500Y44735000D02*
X1412500Y44735000D01*
X1412500Y43265000D02*
X3697500Y43265000D01*
%TO.C,D5*%
X3697500Y31265000D02*
X3697500Y32735000D01*
X3697500Y32735000D02*
X1412500Y32735000D01*
X1412500Y31265000D02*
X3697500Y31265000D01*
%TO.C,R1*%
X5762742Y40477500D02*
X6237258Y40477500D01*
X5762742Y41522500D02*
X6237258Y41522500D01*
%TO.C,R5*%
X5762742Y34477500D02*
X6237258Y34477500D01*
X5762742Y35522500D02*
X6237258Y35522500D01*
%TO.C,C8*%
X30759420Y36990000D02*
X31040580Y36990000D01*
X30759420Y38010000D02*
X31040580Y38010000D01*
%TO.C,C2*%
X12696920Y29740000D02*
X12978080Y29740000D01*
X12696920Y30760000D02*
X12978080Y30760000D01*
%TD*%
%LPC*%
D14*
%TO.C,U5*%
X28850000Y27300000D03*
X28850000Y25000000D03*
D15*
X35150000Y25000000D03*
D14*
X28850000Y22700000D03*
%TD*%
D16*
%TO.C,C11*%
X26400000Y24950000D03*
X26400000Y26850000D03*
%TD*%
D17*
%TO.C,H1*%
X1600000Y4000000D03*
X2302944Y5697056D03*
X2302944Y2302944D03*
X4000000Y6400000D03*
D18*
X4000000Y4000000D03*
D17*
X4000000Y1600000D03*
X5697056Y5697056D03*
X5697056Y2302944D03*
X6400000Y4000000D03*
%TD*%
%TO.C,H2*%
X33600000Y4000000D03*
X34302944Y5697056D03*
X34302944Y2302944D03*
X36000000Y6400000D03*
D18*
X36000000Y4000000D03*
D17*
X36000000Y1600000D03*
X37697056Y5697056D03*
X37697056Y2302944D03*
X38400000Y4000000D03*
%TD*%
%TO.C,H3*%
X1600000Y56000000D03*
X2302944Y57697056D03*
X2302944Y54302944D03*
X4000000Y58400000D03*
D18*
X4000000Y56000000D03*
D17*
X4000000Y53600000D03*
X5697056Y57697056D03*
X5697056Y54302944D03*
X6400000Y56000000D03*
%TD*%
%TO.C,H4*%
X33600000Y56000000D03*
X34302944Y57697056D03*
X34302944Y54302944D03*
X36000000Y58400000D03*
D18*
X36000000Y56000000D03*
D17*
X36000000Y53600000D03*
X37697056Y57697056D03*
X37697056Y54302944D03*
X38400000Y56000000D03*
%TD*%
D19*
%TO.C,J1*%
X17015000Y49815000D03*
X20015000Y49815000D03*
X23015000Y49815000D03*
X17015000Y45185000D03*
X20015000Y45185000D03*
X23015000Y45185000D03*
D20*
X13130000Y55285000D03*
X26900000Y55285000D03*
%TD*%
D21*
%TO.C,J2*%
X3000000Y21620000D03*
D22*
X3000000Y19080000D03*
X3000000Y16540000D03*
X3000000Y14000000D03*
X3000000Y11460000D03*
%TD*%
D23*
%TO.C,J3*%
X27350000Y14350000D03*
D24*
X27350000Y8050000D03*
D25*
X32150000Y11450000D03*
%TD*%
D26*
%TO.C,J4*%
X24000000Y5000000D03*
D27*
X24000000Y9320000D03*
D28*
X24000000Y12320000D03*
%TD*%
D21*
%TO.C,P2*%
X7000000Y22540000D03*
D22*
X7000000Y20000000D03*
%TD*%
D29*
%TO.C,R7*%
X25500000Y45787500D03*
X25500000Y47612500D03*
%TD*%
D28*
%TO.C,TP1*%
X26300000Y19000000D03*
%TD*%
%TO.C,TP2*%
X35000000Y39000000D03*
%TD*%
%TO.C,TP3*%
X8000000Y51000000D03*
%TD*%
%TO.C,TP4*%
X12000000Y14000000D03*
%TD*%
%TO.C,TP5*%
X12000000Y18000000D03*
%TD*%
D30*
%TO.C,X1*%
X18320000Y2925000D03*
D31*
X18320000Y7105000D03*
D30*
X9680000Y2925000D03*
D31*
X9680000Y7105000D03*
D32*
X10800000Y7680000D03*
X11600000Y7680000D03*
D33*
X12250000Y7680000D03*
X13250000Y7680000D03*
X14750000Y7680000D03*
X15750000Y7680000D03*
D32*
X16400000Y7680000D03*
X17200000Y7680000D03*
X17200000Y7680000D03*
X16400000Y7680000D03*
D33*
X15250000Y7680000D03*
X14250000Y7680000D03*
X13750000Y7680000D03*
X12750000Y7680000D03*
D32*
X11600000Y7680000D03*
X10800000Y7680000D03*
D34*
X16890000Y6605000D03*
X11110000Y6605000D03*
%TD*%
D35*
%TO.C,R3*%
X18825000Y10300000D03*
X17175000Y10300000D03*
%TD*%
D36*
%TO.C,R4*%
X10075000Y10300000D03*
X11725000Y10300000D03*
%TD*%
D37*
%TO.C,U3*%
X24095000Y37475000D03*
X25365000Y37475000D03*
X26635000Y37475000D03*
X27905000Y37475000D03*
X27905000Y32525000D03*
X26635000Y32525000D03*
X25365000Y32525000D03*
X24095000Y32525000D03*
%TD*%
D38*
%TO.C,C6*%
X31000000Y20000000D03*
X29100000Y20000000D03*
%TD*%
D35*
%TO.C,R8*%
X6825000Y29000000D03*
X5175000Y29000000D03*
%TD*%
D39*
%TO.C,C1*%
X12062500Y36250000D03*
X13612500Y36250000D03*
%TD*%
D40*
%TO.C,Y1*%
X11987500Y32150000D03*
X11987500Y34350000D03*
X13687500Y34350000D03*
X13687500Y32150000D03*
%TD*%
D41*
%TO.C,C4*%
X19837500Y34025000D03*
X19837500Y32475000D03*
%TD*%
D35*
%TO.C,R6*%
X7825000Y17000000D03*
X6175000Y17000000D03*
%TD*%
D42*
%TO.C,D6*%
X26350000Y42000000D03*
X27300000Y40125000D03*
X25400000Y40125000D03*
%TD*%
D43*
%TO.C,C9*%
X31775000Y34400000D03*
X30225000Y34400000D03*
%TD*%
D44*
%TO.C,D4*%
X1425000Y29000000D03*
X3000000Y29000000D03*
%TD*%
D41*
%TO.C,C5*%
X17837500Y34025000D03*
X17837500Y32475000D03*
%TD*%
D35*
%TO.C,R9*%
X6825000Y32000000D03*
X5175000Y32000000D03*
%TD*%
D39*
%TO.C,C3*%
X3325000Y25700000D03*
X4875000Y25700000D03*
%TD*%
D16*
%TO.C,C10*%
X21200000Y17950000D03*
X21200000Y16050000D03*
%TD*%
D45*
%TO.C,U4*%
X19150000Y16950000D03*
X19150000Y16000000D03*
X19150000Y15050000D03*
X16850000Y15050000D03*
X16850000Y16000000D03*
X16850000Y16950000D03*
%TD*%
D38*
%TO.C,C7*%
X33250000Y29800000D03*
X31350000Y29800000D03*
%TD*%
D44*
%TO.C,D1*%
X1425000Y41000000D03*
X3000000Y41000000D03*
%TD*%
D46*
%TO.C,U1*%
X22000000Y28000000D03*
X22000000Y27500000D03*
X22000000Y27000000D03*
X22000000Y26500000D03*
X22000000Y26000000D03*
X22000000Y25500000D03*
X22000000Y25000000D03*
X22000000Y24500000D03*
X22000000Y24000000D03*
X22000000Y23500000D03*
X22000000Y23000000D03*
X22000000Y22500000D03*
D47*
X20587500Y21087500D03*
X20087500Y21087500D03*
X19587500Y21087500D03*
X19087500Y21087500D03*
X18587500Y21087500D03*
X18087500Y21087500D03*
X17587500Y21087500D03*
X17087500Y21087500D03*
X16587500Y21087500D03*
X16087500Y21087500D03*
X15587500Y21087500D03*
X15087500Y21087500D03*
D46*
X13675000Y22500000D03*
X13675000Y23000000D03*
X13675000Y23500000D03*
X13675000Y24000000D03*
X13675000Y24500000D03*
X13675000Y25000000D03*
X13675000Y25500000D03*
X13675000Y26000000D03*
X13675000Y26500000D03*
X13675000Y27000000D03*
X13675000Y27500000D03*
X13675000Y28000000D03*
D47*
X15087500Y29412500D03*
X15587500Y29412500D03*
X16087500Y29412500D03*
X16587500Y29412500D03*
X17087500Y29412500D03*
X17587500Y29412500D03*
X18087500Y29412500D03*
X18587500Y29412500D03*
X19087500Y29412500D03*
X19587500Y29412500D03*
X20087500Y29412500D03*
X20587500Y29412500D03*
%TD*%
D44*
%TO.C,D3*%
X1425000Y35000000D03*
X3000000Y35000000D03*
%TD*%
D35*
%TO.C,R2*%
X6825000Y44000000D03*
X5175000Y44000000D03*
%TD*%
D44*
%TO.C,D2*%
X1425000Y44000000D03*
X3000000Y44000000D03*
%TD*%
%TO.C,D5*%
X1425000Y32000000D03*
X3000000Y32000000D03*
%TD*%
D35*
%TO.C,R1*%
X6825000Y41000000D03*
X5175000Y41000000D03*
%TD*%
%TO.C,R5*%
X6825000Y35000000D03*
X5175000Y35000000D03*
%TD*%
D43*
%TO.C,C8*%
X31675000Y37500000D03*
X30125000Y37500000D03*
%TD*%
%TO.C,C2*%
X13612500Y30250000D03*
X12062500Y30250000D03*
%TD*%
%LPD*%
M02*
