M48
; DRILL file {KiCad 9.0.0} date 2025-03-02T18:09:01-0800
; FORMAT={-:-/ absolute / inch / decimal}
; #@! TF.CreationDate,2025-03-02T18:09:01-08:00
; #@! TF.GenerationSoftware,Kicad,Pcbnew,9.0.0
; #@! TF.FileFunction,Plated,1,2,PTH
FMAT,2
INCH
; #@! TA.AperFunction,Plated,PTH,ViaDrill
T1C0.0118
; #@! TA.AperFunction,Plated,PTH,ViaDrill
T2C0.0157
; #@! TA.AperFunction,Plated,PTH,ComponentDrill
T3C0.0197
; #@! TA.AperFunction,Plated,PTH,ComponentDrill
T4C0.0236
; #@! TA.AperFunction,Plated,PTH,ComponentDrill
T5C0.0394
; #@! TA.AperFunction,Plated,PTH,ComponentDrill
T6C0.0402
; #@! TA.AperFunction,Plated,PTH,ComponentDrill
T7C0.1260
%
G90
G05
T1
X0.3425Y1.0236
X0.4449Y1.126
X0.4646Y2.1929
X0.4646Y2.1575
X0.4882Y0.8543
X0.5197Y2.1929
X0.5197Y2.1575
X0.5709Y2.1929
X0.5709Y2.1575
X0.6142Y0.9252
X0.8858Y1.475
X0.8858Y1.35
X0.9764Y1.1929
X1.0039Y2.1969
X1.0039Y2.1575
X1.063Y2.1929
X1.063Y2.1575
X1.0866Y1.1929
X1.1102Y2.1929
X1.1102Y2.1575
T2
X0.0837Y1.0118
X0.2677Y1.4291
X0.3081Y0.622
X0.3967Y0.4528
X0.4247Y1.2657
X0.4252Y0.3496
X0.4277Y1.1909
X0.5832Y1.4272
X0.5861Y1.3524
X0.5945Y0.6496
X0.5945Y0.6181
X0.6772Y0.3496
X0.6929Y1.0945
X0.7023Y1.3868
X0.7486Y2.0591
X0.781Y1.3868
X0.788Y2.0591
X0.7884Y0.4055
X0.815Y0.7559
X0.8274Y2.0591
X0.8583Y0.7559
X0.9593Y1.3636
X0.9986Y1.3636
X1.0276Y1.126
X1.038Y1.7466
X1.0591Y1.126
X1.124Y1.1437
X1.1555Y1.1437
X1.2894Y0.7992
X1.2894Y0.7677
X1.2943Y1.4764
X1.2982Y1.3543
X1.3091Y1.2244
X1.3091Y1.122
T3
X0.063Y2.2047
X0.063Y0.1575
X0.0907Y2.2715
X0.0907Y2.1379
X0.0907Y0.2243
X0.0907Y0.0907
X0.1575Y2.2992
X0.1575Y2.1102
X0.1575Y0.252
X0.1575Y0.063
X0.2243Y2.2715
X0.2243Y2.1379
X0.2243Y0.2243
X0.2243Y0.0907
X0.252Y2.2047
X0.252Y0.1575
X1.3228Y2.2047
X1.3228Y0.1575
X1.3505Y2.2715
X1.3505Y2.1379
X1.3505Y0.2243
X1.3505Y0.0907
X1.4173Y2.2992
X1.4173Y2.1102
X1.4173Y0.252
X1.4173Y0.063
X1.4841Y2.2715
X1.4841Y2.1379
X1.4841Y0.2243
X1.4841Y0.0907
X1.5118Y2.2047
X1.5118Y0.1575
T5
X0.1181Y0.8512
X0.1181Y0.7512
X0.1181Y0.6512
X0.1181Y0.5512
X0.1181Y0.4512
X0.2756Y0.8874
X0.2756Y0.7874
X0.315Y2.0079
X0.4724Y0.7087
X0.4724Y0.5512
X1.0354Y0.748
X1.378Y1.5354
T6
X0.9449Y0.485
X0.9449Y0.3669
T7
X0.1575Y2.2047
X0.1575Y0.1575
X1.4173Y2.2047
X1.4173Y0.1575
T4
G00X0.3811Y0.3014
M15
G01X0.3811Y0.2581
M16
G05
G00X0.3811Y0.1309
M15
G01X0.3811Y0.0994
M16
G05
G00X0.7213Y0.3014
M15
G01X0.7213Y0.2581
M16
G05
G00X0.7213Y0.1309
M15
G01X0.7213Y0.0994
M16
G05
T5
G00X1.0256Y0.565
M15
G01X1.128Y0.565
M16
G05
G00X1.0335Y0.3169
M15
G01X1.1201Y0.3169
M16
G05
G00X1.2657Y0.4941
M15
G01X1.2657Y0.4075
M16
G05
M30
