%TF.GenerationSoftware,KiCad,Pcbnew,9.0.0*%
%TF.CreationDate,2025-02-28T01:07:07-08:00*%
%TF.ProjectId,CAN Adapter Board - R1,43414e20-4164-4617-9074-657220426f61,rev?*%
%TF.SameCoordinates,Original*%
%TF.FileFunction,Paste,Top*%
%TF.FilePolarity,Positive*%
%FSLAX46Y46*%
G04 Gerber Fmt 4.6, Leading zero omitted, Abs format (unit mm)*
G04 Created by KiCad (PCBNEW 9.0.0) date 2025-02-28 01:07:07*
%MOMM*%
%LPD*%
G01*
G04 APERTURE LIST*
G04 Aperture macros list*
%AMRoundRect*
0 Rectangle with rounded corners*
0 $1 Rounding radius*
0 $2 $3 $4 $5 $6 $7 $8 $9 X,Y pos of 4 corners*
0 Add a 4 corners polygon primitive as box body*
4,1,4,$2,$3,$4,$5,$6,$7,$8,$9,$2,$3,0*
0 Add four circle primitives for the rounded corners*
1,1,$1+$1,$2,$3*
1,1,$1+$1,$4,$5*
1,1,$1+$1,$6,$7*
1,1,$1+$1,$8,$9*
0 Add four rect primitives between the rounded corners*
20,1,$1+$1,$2,$3,$4,$5,0*
20,1,$1+$1,$4,$5,$6,$7,0*
20,1,$1+$1,$6,$7,$8,$9,0*
20,1,$1+$1,$8,$9,$2,$3,0*%
G04 Aperture macros list end*
%ADD10RoundRect,0.140000X-0.170000X0.140000X-0.170000X-0.140000X0.170000X-0.140000X0.170000X0.140000X0*%
%ADD11RoundRect,0.150000X0.700000X-0.150000X0.700000X0.150000X-0.700000X0.150000X-0.700000X-0.150000X0*%
%ADD12RoundRect,0.250000X1.150000X-0.250000X1.150000X0.250000X-1.150000X0.250000X-1.150000X-0.250000X0*%
%ADD13RoundRect,0.225000X0.225000X0.250000X-0.225000X0.250000X-0.225000X-0.250000X0.225000X-0.250000X0*%
%ADD14RoundRect,0.250000X-0.250000X-2.500000X0.250000X-2.500000X0.250000X2.500000X-0.250000X2.500000X0*%
%ADD15RoundRect,0.250000X-0.550000X-1.250000X0.550000X-1.250000X0.550000X1.250000X-0.550000X1.250000X0*%
%ADD16RoundRect,0.150000X-0.825000X-0.150000X0.825000X-0.150000X0.825000X0.150000X-0.825000X0.150000X0*%
G04 APERTURE END LIST*
D10*
%TO.C,C4*%
X10250000Y10480000D03*
X10250000Y9520000D03*
%TD*%
D11*
%TO.C,J3*%
X5950000Y4250000D03*
X5950000Y5500000D03*
X5950000Y6750000D03*
X5950000Y8000000D03*
X5950000Y9250000D03*
X5950000Y10500000D03*
X5950000Y11750000D03*
D12*
X2600000Y2400000D03*
X2600000Y13600000D03*
%TD*%
D13*
%TO.C,C2*%
X15775000Y6250000D03*
X14225000Y6250000D03*
%TD*%
D14*
%TO.C,J2*%
X12000000Y18500000D03*
X14000000Y18500000D03*
X16000000Y18500000D03*
X18000000Y18500000D03*
X20000000Y18500000D03*
X22000000Y18500000D03*
X24000000Y18500000D03*
X26000000Y18500000D03*
D15*
X9600000Y20750000D03*
X28400000Y20750000D03*
%TD*%
D14*
%TO.C,J1*%
X12000000Y28500000D03*
X14000000Y28500000D03*
X16000000Y28500000D03*
X18000000Y28500000D03*
X20000000Y28500000D03*
X22000000Y28500000D03*
X24000000Y28500000D03*
X26000000Y28500000D03*
D15*
X9600000Y30750000D03*
X28400000Y30750000D03*
%TD*%
D16*
%TO.C,U2*%
X12525000Y11905000D03*
X12525000Y10635000D03*
X12525000Y9365000D03*
X12525000Y8095000D03*
X17475000Y8095000D03*
X17475000Y9365000D03*
X17475000Y10635000D03*
X17475000Y11905000D03*
%TD*%
M02*
