%TF.GenerationSoftware,KiCad,Pcbnew,9.0.0*%
%TF.CreationDate,2025-02-28T01:07:07-08:00*%
%TF.ProjectId,CAN Adapter Board - R1,43414e20-4164-4617-9074-657220426f61,rev?*%
%TF.SameCoordinates,Original*%
%TF.FileFunction,Legend,Top*%
%TF.FilePolarity,Positive*%
%FSLAX46Y46*%
G04 Gerber Fmt 4.6, Leading zero omitted, Abs format (unit mm)*
G04 Created by KiCad (PCBNEW 9.0.0) date 2025-02-28 01:07:07*
%MOMM*%
%LPD*%
G01*
G04 APERTURE LIST*
G04 Aperture macros list*
%AMRoundRect*
0 Rectangle with rounded corners*
0 $1 Rounding radius*
0 $2 $3 $4 $5 $6 $7 $8 $9 X,Y pos of 4 corners*
0 Add a 4 corners polygon primitive as box body*
4,1,4,$2,$3,$4,$5,$6,$7,$8,$9,$2,$3,0*
0 Add four circle primitives for the rounded corners*
1,1,$1+$1,$2,$3*
1,1,$1+$1,$4,$5*
1,1,$1+$1,$6,$7*
1,1,$1+$1,$8,$9*
0 Add four rect primitives between the rounded corners*
20,1,$1+$1,$2,$3,$4,$5,0*
20,1,$1+$1,$4,$5,$6,$7,0*
20,1,$1+$1,$6,$7,$8,$9,0*
20,1,$1+$1,$8,$9,$2,$3,0*%
G04 Aperture macros list end*
%ADD10C,0.300000*%
%ADD11C,0.150000*%
%ADD12C,0.120000*%
%ADD13C,0.800000*%
%ADD14C,6.400000*%
%ADD15RoundRect,0.140000X-0.170000X0.140000X-0.170000X-0.140000X0.170000X-0.140000X0.170000X0.140000X0*%
%ADD16RoundRect,0.150000X0.700000X-0.150000X0.700000X0.150000X-0.700000X0.150000X-0.700000X-0.150000X0*%
%ADD17RoundRect,0.250000X1.150000X-0.250000X1.150000X0.250000X-1.150000X0.250000X-1.150000X-0.250000X0*%
%ADD18RoundRect,0.225000X0.225000X0.250000X-0.225000X0.250000X-0.225000X-0.250000X0.225000X-0.250000X0*%
%ADD19RoundRect,0.250000X-0.250000X-2.500000X0.250000X-2.500000X0.250000X2.500000X-0.250000X2.500000X0*%
%ADD20RoundRect,0.250000X-0.550000X-1.250000X0.550000X-1.250000X0.550000X1.250000X-0.550000X1.250000X0*%
%ADD21RoundRect,0.150000X-0.825000X-0.150000X0.825000X-0.150000X0.825000X0.150000X-0.825000X0.150000X0*%
G04 APERTURE END LIST*
D10*
X21811653Y7599171D02*
X21311653Y8313457D01*
X20954510Y7599171D02*
X20954510Y9099171D01*
X20954510Y9099171D02*
X21525939Y9099171D01*
X21525939Y9099171D02*
X21668796Y9027742D01*
X21668796Y9027742D02*
X21740225Y8956314D01*
X21740225Y8956314D02*
X21811653Y8813457D01*
X21811653Y8813457D02*
X21811653Y8599171D01*
X21811653Y8599171D02*
X21740225Y8456314D01*
X21740225Y8456314D02*
X21668796Y8384885D01*
X21668796Y8384885D02*
X21525939Y8313457D01*
X21525939Y8313457D02*
X20954510Y8313457D01*
X23240225Y7599171D02*
X22383082Y7599171D01*
X22811653Y7599171D02*
X22811653Y9099171D01*
X22811653Y9099171D02*
X22668796Y8884885D01*
X22668796Y8884885D02*
X22525939Y8742028D01*
X22525939Y8742028D02*
X22383082Y8670600D01*
X3940225Y19914087D02*
X4797368Y19914087D01*
X4368796Y18414087D02*
X4368796Y19914087D01*
X5583082Y19914087D02*
X5868796Y19914087D01*
X5868796Y19914087D02*
X6011653Y19842658D01*
X6011653Y19842658D02*
X6154510Y19699801D01*
X6154510Y19699801D02*
X6225939Y19414087D01*
X6225939Y19414087D02*
X6225939Y18914087D01*
X6225939Y18914087D02*
X6154510Y18628373D01*
X6154510Y18628373D02*
X6011653Y18485516D01*
X6011653Y18485516D02*
X5868796Y18414087D01*
X5868796Y18414087D02*
X5583082Y18414087D01*
X5583082Y18414087D02*
X5440225Y18485516D01*
X5440225Y18485516D02*
X5297367Y18628373D01*
X5297367Y18628373D02*
X5225939Y18914087D01*
X5225939Y18914087D02*
X5225939Y19414087D01*
X5225939Y19414087D02*
X5297367Y19699801D01*
X5297367Y19699801D02*
X5440225Y19842658D01*
X5440225Y19842658D02*
X5583082Y19914087D01*
X5011653Y16142028D02*
X4940225Y16070600D01*
X4940225Y16070600D02*
X4725939Y15999171D01*
X4725939Y15999171D02*
X4583082Y15999171D01*
X4583082Y15999171D02*
X4368796Y16070600D01*
X4368796Y16070600D02*
X4225939Y16213457D01*
X4225939Y16213457D02*
X4154510Y16356314D01*
X4154510Y16356314D02*
X4083082Y16642028D01*
X4083082Y16642028D02*
X4083082Y16856314D01*
X4083082Y16856314D02*
X4154510Y17142028D01*
X4154510Y17142028D02*
X4225939Y17284885D01*
X4225939Y17284885D02*
X4368796Y17427742D01*
X4368796Y17427742D02*
X4583082Y17499171D01*
X4583082Y17499171D02*
X4725939Y17499171D01*
X4725939Y17499171D02*
X4940225Y17427742D01*
X4940225Y17427742D02*
X5011653Y17356314D01*
X6154510Y16784885D02*
X5654510Y16784885D01*
X5654510Y15999171D02*
X5654510Y17499171D01*
X5654510Y17499171D02*
X6368796Y17499171D01*
X6868796Y16070600D02*
X7083082Y15999171D01*
X7083082Y15999171D02*
X7440224Y15999171D01*
X7440224Y15999171D02*
X7583082Y16070600D01*
X7583082Y16070600D02*
X7654510Y16142028D01*
X7654510Y16142028D02*
X7725939Y16284885D01*
X7725939Y16284885D02*
X7725939Y16427742D01*
X7725939Y16427742D02*
X7654510Y16570600D01*
X7654510Y16570600D02*
X7583082Y16642028D01*
X7583082Y16642028D02*
X7440224Y16713457D01*
X7440224Y16713457D02*
X7154510Y16784885D01*
X7154510Y16784885D02*
X7011653Y16856314D01*
X7011653Y16856314D02*
X6940224Y16927742D01*
X6940224Y16927742D02*
X6868796Y17070600D01*
X6868796Y17070600D02*
X6868796Y17213457D01*
X6868796Y17213457D02*
X6940224Y17356314D01*
X6940224Y17356314D02*
X7011653Y17427742D01*
X7011653Y17427742D02*
X7154510Y17499171D01*
X7154510Y17499171D02*
X7511653Y17499171D01*
X7511653Y17499171D02*
X7725939Y17427742D01*
X740225Y27099171D02*
X1597368Y27099171D01*
X1168796Y25599171D02*
X1168796Y27099171D01*
X2383082Y27099171D02*
X2668796Y27099171D01*
X2668796Y27099171D02*
X2811653Y27027742D01*
X2811653Y27027742D02*
X2954510Y26884885D01*
X2954510Y26884885D02*
X3025939Y26599171D01*
X3025939Y26599171D02*
X3025939Y26099171D01*
X3025939Y26099171D02*
X2954510Y25813457D01*
X2954510Y25813457D02*
X2811653Y25670600D01*
X2811653Y25670600D02*
X2668796Y25599171D01*
X2668796Y25599171D02*
X2383082Y25599171D01*
X2383082Y25599171D02*
X2240225Y25670600D01*
X2240225Y25670600D02*
X2097367Y25813457D01*
X2097367Y25813457D02*
X2025939Y26099171D01*
X2025939Y26099171D02*
X2025939Y26599171D01*
X2025939Y26599171D02*
X2097367Y26884885D01*
X2097367Y26884885D02*
X2240225Y27027742D01*
X2240225Y27027742D02*
X2383082Y27099171D01*
X5311653Y26384885D02*
X5525939Y26313457D01*
X5525939Y26313457D02*
X5597368Y26242028D01*
X5597368Y26242028D02*
X5668796Y26099171D01*
X5668796Y26099171D02*
X5668796Y25884885D01*
X5668796Y25884885D02*
X5597368Y25742028D01*
X5597368Y25742028D02*
X5525939Y25670600D01*
X5525939Y25670600D02*
X5383082Y25599171D01*
X5383082Y25599171D02*
X4811653Y25599171D01*
X4811653Y25599171D02*
X4811653Y27099171D01*
X4811653Y27099171D02*
X5311653Y27099171D01*
X5311653Y27099171D02*
X5454511Y27027742D01*
X5454511Y27027742D02*
X5525939Y26956314D01*
X5525939Y26956314D02*
X5597368Y26813457D01*
X5597368Y26813457D02*
X5597368Y26670600D01*
X5597368Y26670600D02*
X5525939Y26527742D01*
X5525939Y26527742D02*
X5454511Y26456314D01*
X5454511Y26456314D02*
X5311653Y26384885D01*
X5311653Y26384885D02*
X4811653Y26384885D01*
X6311653Y27099171D02*
X6311653Y25884885D01*
X6311653Y25884885D02*
X6383082Y25742028D01*
X6383082Y25742028D02*
X6454511Y25670600D01*
X6454511Y25670600D02*
X6597368Y25599171D01*
X6597368Y25599171D02*
X6883082Y25599171D01*
X6883082Y25599171D02*
X7025939Y25670600D01*
X7025939Y25670600D02*
X7097368Y25742028D01*
X7097368Y25742028D02*
X7168796Y25884885D01*
X7168796Y25884885D02*
X7168796Y27099171D01*
X7811654Y25670600D02*
X8025940Y25599171D01*
X8025940Y25599171D02*
X8383082Y25599171D01*
X8383082Y25599171D02*
X8525940Y25670600D01*
X8525940Y25670600D02*
X8597368Y25742028D01*
X8597368Y25742028D02*
X8668797Y25884885D01*
X8668797Y25884885D02*
X8668797Y26027742D01*
X8668797Y26027742D02*
X8597368Y26170600D01*
X8597368Y26170600D02*
X8525940Y26242028D01*
X8525940Y26242028D02*
X8383082Y26313457D01*
X8383082Y26313457D02*
X8097368Y26384885D01*
X8097368Y26384885D02*
X7954511Y26456314D01*
X7954511Y26456314D02*
X7883082Y26527742D01*
X7883082Y26527742D02*
X7811654Y26670600D01*
X7811654Y26670600D02*
X7811654Y26813457D01*
X7811654Y26813457D02*
X7883082Y26956314D01*
X7883082Y26956314D02*
X7954511Y27027742D01*
X7954511Y27027742D02*
X8097368Y27099171D01*
X8097368Y27099171D02*
X8454511Y27099171D01*
X8454511Y27099171D02*
X8668797Y27027742D01*
X20431458Y12784043D02*
X20360030Y12712615D01*
X20360030Y12712615D02*
X20145744Y12641186D01*
X20145744Y12641186D02*
X20002887Y12641186D01*
X20002887Y12641186D02*
X19788601Y12712615D01*
X19788601Y12712615D02*
X19645744Y12855472D01*
X19645744Y12855472D02*
X19574315Y12998329D01*
X19574315Y12998329D02*
X19502887Y13284043D01*
X19502887Y13284043D02*
X19502887Y13498329D01*
X19502887Y13498329D02*
X19574315Y13784043D01*
X19574315Y13784043D02*
X19645744Y13926900D01*
X19645744Y13926900D02*
X19788601Y14069757D01*
X19788601Y14069757D02*
X20002887Y14141186D01*
X20002887Y14141186D02*
X20145744Y14141186D01*
X20145744Y14141186D02*
X20360030Y14069757D01*
X20360030Y14069757D02*
X20431458Y13998329D01*
X21574315Y13426900D02*
X21074315Y13426900D01*
X21074315Y12641186D02*
X21074315Y14141186D01*
X21074315Y14141186D02*
X21788601Y14141186D01*
X22288601Y12712615D02*
X22502887Y12641186D01*
X22502887Y12641186D02*
X22860029Y12641186D01*
X22860029Y12641186D02*
X23002887Y12712615D01*
X23002887Y12712615D02*
X23074315Y12784043D01*
X23074315Y12784043D02*
X23145744Y12926900D01*
X23145744Y12926900D02*
X23145744Y13069757D01*
X23145744Y13069757D02*
X23074315Y13212615D01*
X23074315Y13212615D02*
X23002887Y13284043D01*
X23002887Y13284043D02*
X22860029Y13355472D01*
X22860029Y13355472D02*
X22574315Y13426900D01*
X22574315Y13426900D02*
X22431458Y13498329D01*
X22431458Y13498329D02*
X22360029Y13569757D01*
X22360029Y13569757D02*
X22288601Y13712615D01*
X22288601Y13712615D02*
X22288601Y13855472D01*
X22288601Y13855472D02*
X22360029Y13998329D01*
X22360029Y13998329D02*
X22431458Y14069757D01*
X22431458Y14069757D02*
X22574315Y14141186D01*
X22574315Y14141186D02*
X22931458Y14141186D01*
X22931458Y14141186D02*
X23145744Y14069757D01*
X23788600Y13212615D02*
X24931458Y13212615D01*
X26502886Y12784043D02*
X26431458Y12712615D01*
X26431458Y12712615D02*
X26217172Y12641186D01*
X26217172Y12641186D02*
X26074315Y12641186D01*
X26074315Y12641186D02*
X25860029Y12712615D01*
X25860029Y12712615D02*
X25717172Y12855472D01*
X25717172Y12855472D02*
X25645743Y12998329D01*
X25645743Y12998329D02*
X25574315Y13284043D01*
X25574315Y13284043D02*
X25574315Y13498329D01*
X25574315Y13498329D02*
X25645743Y13784043D01*
X25645743Y13784043D02*
X25717172Y13926900D01*
X25717172Y13926900D02*
X25860029Y14069757D01*
X25860029Y14069757D02*
X26074315Y14141186D01*
X26074315Y14141186D02*
X26217172Y14141186D01*
X26217172Y14141186D02*
X26431458Y14069757D01*
X26431458Y14069757D02*
X26502886Y13998329D01*
X27074315Y13069757D02*
X27788601Y13069757D01*
X26931458Y12641186D02*
X27431458Y14141186D01*
X27431458Y14141186D02*
X27931458Y12641186D01*
X28431457Y12641186D02*
X28431457Y14141186D01*
X28431457Y14141186D02*
X29288600Y12641186D01*
X29288600Y12641186D02*
X29288600Y14141186D01*
X19502887Y10654841D02*
X20217173Y10654841D01*
X19360030Y10226270D02*
X19860030Y11726270D01*
X19860030Y11726270D02*
X20360030Y10226270D01*
X21502887Y10226270D02*
X21502887Y11726270D01*
X21502887Y10297699D02*
X21360029Y10226270D01*
X21360029Y10226270D02*
X21074315Y10226270D01*
X21074315Y10226270D02*
X20931458Y10297699D01*
X20931458Y10297699D02*
X20860029Y10369127D01*
X20860029Y10369127D02*
X20788601Y10511984D01*
X20788601Y10511984D02*
X20788601Y10940556D01*
X20788601Y10940556D02*
X20860029Y11083413D01*
X20860029Y11083413D02*
X20931458Y11154841D01*
X20931458Y11154841D02*
X21074315Y11226270D01*
X21074315Y11226270D02*
X21360029Y11226270D01*
X21360029Y11226270D02*
X21502887Y11154841D01*
X22860030Y10226270D02*
X22860030Y11011984D01*
X22860030Y11011984D02*
X22788601Y11154841D01*
X22788601Y11154841D02*
X22645744Y11226270D01*
X22645744Y11226270D02*
X22360030Y11226270D01*
X22360030Y11226270D02*
X22217172Y11154841D01*
X22860030Y10297699D02*
X22717172Y10226270D01*
X22717172Y10226270D02*
X22360030Y10226270D01*
X22360030Y10226270D02*
X22217172Y10297699D01*
X22217172Y10297699D02*
X22145744Y10440556D01*
X22145744Y10440556D02*
X22145744Y10583413D01*
X22145744Y10583413D02*
X22217172Y10726270D01*
X22217172Y10726270D02*
X22360030Y10797699D01*
X22360030Y10797699D02*
X22717172Y10797699D01*
X22717172Y10797699D02*
X22860030Y10869127D01*
X23574315Y11226270D02*
X23574315Y9726270D01*
X23574315Y11154841D02*
X23717173Y11226270D01*
X23717173Y11226270D02*
X24002887Y11226270D01*
X24002887Y11226270D02*
X24145744Y11154841D01*
X24145744Y11154841D02*
X24217173Y11083413D01*
X24217173Y11083413D02*
X24288601Y10940556D01*
X24288601Y10940556D02*
X24288601Y10511984D01*
X24288601Y10511984D02*
X24217173Y10369127D01*
X24217173Y10369127D02*
X24145744Y10297699D01*
X24145744Y10297699D02*
X24002887Y10226270D01*
X24002887Y10226270D02*
X23717173Y10226270D01*
X23717173Y10226270D02*
X23574315Y10297699D01*
X24717173Y11226270D02*
X25288601Y11226270D01*
X24931458Y11726270D02*
X24931458Y10440556D01*
X24931458Y10440556D02*
X25002887Y10297699D01*
X25002887Y10297699D02*
X25145744Y10226270D01*
X25145744Y10226270D02*
X25288601Y10226270D01*
X26360030Y10297699D02*
X26217173Y10226270D01*
X26217173Y10226270D02*
X25931459Y10226270D01*
X25931459Y10226270D02*
X25788601Y10297699D01*
X25788601Y10297699D02*
X25717173Y10440556D01*
X25717173Y10440556D02*
X25717173Y11011984D01*
X25717173Y11011984D02*
X25788601Y11154841D01*
X25788601Y11154841D02*
X25931459Y11226270D01*
X25931459Y11226270D02*
X26217173Y11226270D01*
X26217173Y11226270D02*
X26360030Y11154841D01*
X26360030Y11154841D02*
X26431459Y11011984D01*
X26431459Y11011984D02*
X26431459Y10869127D01*
X26431459Y10869127D02*
X25717173Y10726270D01*
X27074315Y10226270D02*
X27074315Y11226270D01*
X27074315Y10940556D02*
X27145744Y11083413D01*
X27145744Y11083413D02*
X27217173Y11154841D01*
X27217173Y11154841D02*
X27360030Y11226270D01*
X27360030Y11226270D02*
X27502887Y11226270D01*
D11*
X10559580Y11833333D02*
X10607200Y11785714D01*
X10607200Y11785714D02*
X10654819Y11642857D01*
X10654819Y11642857D02*
X10654819Y11547619D01*
X10654819Y11547619D02*
X10607200Y11404762D01*
X10607200Y11404762D02*
X10511961Y11309524D01*
X10511961Y11309524D02*
X10416723Y11261905D01*
X10416723Y11261905D02*
X10226247Y11214286D01*
X10226247Y11214286D02*
X10083390Y11214286D01*
X10083390Y11214286D02*
X9892914Y11261905D01*
X9892914Y11261905D02*
X9797676Y11309524D01*
X9797676Y11309524D02*
X9702438Y11404762D01*
X9702438Y11404762D02*
X9654819Y11547619D01*
X9654819Y11547619D02*
X9654819Y11642857D01*
X9654819Y11642857D02*
X9702438Y11785714D01*
X9702438Y11785714D02*
X9750057Y11833333D01*
X9988152Y12690476D02*
X10654819Y12690476D01*
X9607200Y12452381D02*
X10321485Y12214286D01*
X10321485Y12214286D02*
X10321485Y12833333D01*
X6654819Y2066666D02*
X7369104Y2066666D01*
X7369104Y2066666D02*
X7511961Y2019047D01*
X7511961Y2019047D02*
X7607200Y1923809D01*
X7607200Y1923809D02*
X7654819Y1780952D01*
X7654819Y1780952D02*
X7654819Y1685714D01*
X6654819Y2447619D02*
X6654819Y3066666D01*
X6654819Y3066666D02*
X7035771Y2733333D01*
X7035771Y2733333D02*
X7035771Y2876190D01*
X7035771Y2876190D02*
X7083390Y2971428D01*
X7083390Y2971428D02*
X7131009Y3019047D01*
X7131009Y3019047D02*
X7226247Y3066666D01*
X7226247Y3066666D02*
X7464342Y3066666D01*
X7464342Y3066666D02*
X7559580Y3019047D01*
X7559580Y3019047D02*
X7607200Y2971428D01*
X7607200Y2971428D02*
X7654819Y2876190D01*
X7654819Y2876190D02*
X7654819Y2590476D01*
X7654819Y2590476D02*
X7607200Y2495238D01*
X7607200Y2495238D02*
X7559580Y2447619D01*
X14833333Y4460419D02*
X14785714Y4412800D01*
X14785714Y4412800D02*
X14642857Y4365180D01*
X14642857Y4365180D02*
X14547619Y4365180D01*
X14547619Y4365180D02*
X14404762Y4412800D01*
X14404762Y4412800D02*
X14309524Y4508038D01*
X14309524Y4508038D02*
X14261905Y4603276D01*
X14261905Y4603276D02*
X14214286Y4793752D01*
X14214286Y4793752D02*
X14214286Y4936609D01*
X14214286Y4936609D02*
X14261905Y5127085D01*
X14261905Y5127085D02*
X14309524Y5222323D01*
X14309524Y5222323D02*
X14404762Y5317561D01*
X14404762Y5317561D02*
X14547619Y5365180D01*
X14547619Y5365180D02*
X14642857Y5365180D01*
X14642857Y5365180D02*
X14785714Y5317561D01*
X14785714Y5317561D02*
X14833333Y5269942D01*
X15214286Y5269942D02*
X15261905Y5317561D01*
X15261905Y5317561D02*
X15357143Y5365180D01*
X15357143Y5365180D02*
X15595238Y5365180D01*
X15595238Y5365180D02*
X15690476Y5317561D01*
X15690476Y5317561D02*
X15738095Y5269942D01*
X15738095Y5269942D02*
X15785714Y5174704D01*
X15785714Y5174704D02*
X15785714Y5079466D01*
X15785714Y5079466D02*
X15738095Y4936609D01*
X15738095Y4936609D02*
X15166667Y4365180D01*
X15166667Y4365180D02*
X15785714Y4365180D01*
X27466666Y17345180D02*
X27466666Y16630895D01*
X27466666Y16630895D02*
X27419047Y16488038D01*
X27419047Y16488038D02*
X27323809Y16392800D01*
X27323809Y16392800D02*
X27180952Y16345180D01*
X27180952Y16345180D02*
X27085714Y16345180D01*
X27895238Y17249942D02*
X27942857Y17297561D01*
X27942857Y17297561D02*
X28038095Y17345180D01*
X28038095Y17345180D02*
X28276190Y17345180D01*
X28276190Y17345180D02*
X28371428Y17297561D01*
X28371428Y17297561D02*
X28419047Y17249942D01*
X28419047Y17249942D02*
X28466666Y17154704D01*
X28466666Y17154704D02*
X28466666Y17059466D01*
X28466666Y17059466D02*
X28419047Y16916609D01*
X28419047Y16916609D02*
X27847619Y16345180D01*
X27847619Y16345180D02*
X28466666Y16345180D01*
X17466666Y34745180D02*
X17466666Y34030895D01*
X17466666Y34030895D02*
X17419047Y33888038D01*
X17419047Y33888038D02*
X17323809Y33792800D01*
X17323809Y33792800D02*
X17180952Y33745180D01*
X17180952Y33745180D02*
X17085714Y33745180D01*
X18466666Y33745180D02*
X17895238Y33745180D01*
X18180952Y33745180D02*
X18180952Y34745180D01*
X18180952Y34745180D02*
X18085714Y34602323D01*
X18085714Y34602323D02*
X17990476Y34507085D01*
X17990476Y34507085D02*
X17895238Y34459466D01*
X14238095Y13945180D02*
X14238095Y13135657D01*
X14238095Y13135657D02*
X14285714Y13040419D01*
X14285714Y13040419D02*
X14333333Y12992800D01*
X14333333Y12992800D02*
X14428571Y12945180D01*
X14428571Y12945180D02*
X14619047Y12945180D01*
X14619047Y12945180D02*
X14714285Y12992800D01*
X14714285Y12992800D02*
X14761904Y13040419D01*
X14761904Y13040419D02*
X14809523Y13135657D01*
X14809523Y13135657D02*
X14809523Y13945180D01*
X15238095Y13849942D02*
X15285714Y13897561D01*
X15285714Y13897561D02*
X15380952Y13945180D01*
X15380952Y13945180D02*
X15619047Y13945180D01*
X15619047Y13945180D02*
X15714285Y13897561D01*
X15714285Y13897561D02*
X15761904Y13849942D01*
X15761904Y13849942D02*
X15809523Y13754704D01*
X15809523Y13754704D02*
X15809523Y13659466D01*
X15809523Y13659466D02*
X15761904Y13516609D01*
X15761904Y13516609D02*
X15190476Y12945180D01*
X15190476Y12945180D02*
X15809523Y12945180D01*
D12*
%TO.C,C4*%
X9890000Y10107836D02*
X9890000Y9892164D01*
X10610000Y10107836D02*
X10610000Y9892164D01*
%TO.C,J3*%
X1390000Y3160000D02*
X1390000Y12840000D01*
X4260000Y14110000D02*
X5860000Y14110000D01*
X4260000Y1890000D02*
X5860000Y1890000D01*
X5860000Y14110000D02*
X5860000Y12310000D01*
X5860000Y3690000D02*
X6800000Y3690000D01*
X5860000Y1890000D02*
X5860000Y3690000D01*
%TO.C,C2*%
X15140580Y6760000D02*
X14859420Y6760000D01*
X15140580Y5740000D02*
X14859420Y5740000D01*
%TO.C,J2*%
X8915000Y23360000D02*
X29085000Y23360000D01*
X8915000Y22510000D02*
X8915000Y23360000D01*
X8915000Y18990000D02*
X8915000Y18140000D01*
X8915000Y18140000D02*
X11240000Y18140000D01*
X11240000Y18140000D02*
X11240000Y15750000D01*
X29085000Y23360000D02*
X29085000Y22510000D01*
X29085000Y18990000D02*
X29085000Y18140000D01*
X29085000Y18140000D02*
X26760000Y18140000D01*
%TO.C,J1*%
X8915000Y33360000D02*
X29085000Y33360000D01*
X8915000Y32510000D02*
X8915000Y33360000D01*
X8915000Y28990000D02*
X8915000Y28140000D01*
X8915000Y28140000D02*
X11240000Y28140000D01*
X11240000Y28140000D02*
X11240000Y25750000D01*
X29085000Y33360000D02*
X29085000Y32510000D01*
X29085000Y28990000D02*
X29085000Y28140000D01*
X29085000Y28140000D02*
X26760000Y28140000D01*
%TO.C,U2*%
X15000000Y12560000D02*
X13050000Y12560000D01*
X15000000Y12560000D02*
X16950000Y12560000D01*
X15000000Y7440000D02*
X13050000Y7440000D01*
X15000000Y7440000D02*
X16950000Y7440000D01*
X12300000Y12465000D02*
X12060000Y12795000D01*
X12540000Y12795000D01*
X12300000Y12465000D01*
G36*
X12300000Y12465000D02*
G01*
X12060000Y12795000D01*
X12540000Y12795000D01*
X12300000Y12465000D01*
G37*
%TD*%
%LPC*%
D13*
%TO.C,H1*%
X1600000Y31000000D03*
X2302944Y32697056D03*
X2302944Y29302944D03*
X4000000Y33400000D03*
D14*
X4000000Y31000000D03*
D13*
X4000000Y28600000D03*
X5697056Y32697056D03*
X5697056Y29302944D03*
X6400000Y31000000D03*
%TD*%
D15*
%TO.C,C4*%
X10250000Y10480000D03*
X10250000Y9520000D03*
%TD*%
D16*
%TO.C,J3*%
X5950000Y4250000D03*
X5950000Y5500000D03*
X5950000Y6750000D03*
X5950000Y8000000D03*
X5950000Y9250000D03*
X5950000Y10500000D03*
X5950000Y11750000D03*
D17*
X2600000Y2400000D03*
X2600000Y13600000D03*
%TD*%
D13*
%TO.C,H2*%
X23600000Y4000000D03*
X24302944Y5697056D03*
X24302944Y2302944D03*
X26000000Y6400000D03*
D14*
X26000000Y4000000D03*
D13*
X26000000Y1600000D03*
X27697056Y5697056D03*
X27697056Y2302944D03*
X28400000Y4000000D03*
%TD*%
D18*
%TO.C,C2*%
X15775000Y6250000D03*
X14225000Y6250000D03*
%TD*%
D19*
%TO.C,J2*%
X12000000Y18500000D03*
X14000000Y18500000D03*
X16000000Y18500000D03*
X18000000Y18500000D03*
X20000000Y18500000D03*
X22000000Y18500000D03*
X24000000Y18500000D03*
X26000000Y18500000D03*
D20*
X9600000Y20750000D03*
X28400000Y20750000D03*
%TD*%
D19*
%TO.C,J1*%
X12000000Y28500000D03*
X14000000Y28500000D03*
X16000000Y28500000D03*
X18000000Y28500000D03*
X20000000Y28500000D03*
X22000000Y28500000D03*
X24000000Y28500000D03*
X26000000Y28500000D03*
D20*
X9600000Y30750000D03*
X28400000Y30750000D03*
%TD*%
D21*
%TO.C,U2*%
X12525000Y11905000D03*
X12525000Y10635000D03*
X12525000Y9365000D03*
X12525000Y8095000D03*
X17475000Y8095000D03*
X17475000Y9365000D03*
X17475000Y10635000D03*
X17475000Y11905000D03*
%TD*%
%LPD*%
M02*
