%TF.GenerationSoftware,KiCad,Pcbnew,9.0.0*%
%TF.CreationDate,2025-02-28T01:07:07-08:00*%
%TF.ProjectId,CAN Adapter Board - R1,43414e20-4164-4617-9074-657220426f61,rev?*%
%TF.SameCoordinates,Original*%
%TF.FileFunction,Copper,L1,Top*%
%TF.FilePolarity,Positive*%
%FSLAX46Y46*%
G04 Gerber Fmt 4.6, Leading zero omitted, Abs format (unit mm)*
G04 Created by KiCad (PCBNEW 9.0.0) date 2025-02-28 01:07:07*
%MOMM*%
%LPD*%
G01*
G04 APERTURE LIST*
G04 Aperture macros list*
%AMRoundRect*
0 Rectangle with rounded corners*
0 $1 Rounding radius*
0 $2 $3 $4 $5 $6 $7 $8 $9 X,Y pos of 4 corners*
0 Add a 4 corners polygon primitive as box body*
4,1,4,$2,$3,$4,$5,$6,$7,$8,$9,$2,$3,0*
0 Add four circle primitives for the rounded corners*
1,1,$1+$1,$2,$3*
1,1,$1+$1,$4,$5*
1,1,$1+$1,$6,$7*
1,1,$1+$1,$8,$9*
0 Add four rect primitives between the rounded corners*
20,1,$1+$1,$2,$3,$4,$5,0*
20,1,$1+$1,$4,$5,$6,$7,0*
20,1,$1+$1,$6,$7,$8,$9,0*
20,1,$1+$1,$8,$9,$2,$3,0*%
G04 Aperture macros list end*
%TA.AperFunction,ComponentPad*%
%ADD10C,0.800000*%
%TD*%
%TA.AperFunction,ComponentPad*%
%ADD11C,6.400000*%
%TD*%
%TA.AperFunction,SMDPad,CuDef*%
%ADD12RoundRect,0.140000X-0.170000X0.140000X-0.170000X-0.140000X0.170000X-0.140000X0.170000X0.140000X0*%
%TD*%
%TA.AperFunction,SMDPad,CuDef*%
%ADD13RoundRect,0.150000X0.700000X-0.150000X0.700000X0.150000X-0.700000X0.150000X-0.700000X-0.150000X0*%
%TD*%
%TA.AperFunction,SMDPad,CuDef*%
%ADD14RoundRect,0.250000X1.150000X-0.250000X1.150000X0.250000X-1.150000X0.250000X-1.150000X-0.250000X0*%
%TD*%
%TA.AperFunction,SMDPad,CuDef*%
%ADD15RoundRect,0.225000X0.225000X0.250000X-0.225000X0.250000X-0.225000X-0.250000X0.225000X-0.250000X0*%
%TD*%
%TA.AperFunction,SMDPad,CuDef*%
%ADD16RoundRect,0.250000X-0.250000X-2.500000X0.250000X-2.500000X0.250000X2.500000X-0.250000X2.500000X0*%
%TD*%
%TA.AperFunction,SMDPad,CuDef*%
%ADD17RoundRect,0.250000X-0.550000X-1.250000X0.550000X-1.250000X0.550000X1.250000X-0.550000X1.250000X0*%
%TD*%
%TA.AperFunction,SMDPad,CuDef*%
%ADD18RoundRect,0.150000X-0.825000X-0.150000X0.825000X-0.150000X0.825000X0.150000X-0.825000X0.150000X0*%
%TD*%
%TA.AperFunction,ViaPad*%
%ADD19C,0.889000*%
%TD*%
%TA.AperFunction,ViaPad*%
%ADD20C,1.000000*%
%TD*%
%TA.AperFunction,Conductor*%
%ADD21C,0.400000*%
%TD*%
%TA.AperFunction,Conductor*%
%ADD22C,0.700000*%
%TD*%
%TA.AperFunction,Conductor*%
%ADD23C,0.300000*%
%TD*%
%TA.AperFunction,Conductor*%
%ADD24C,0.200000*%
%TD*%
G04 APERTURE END LIST*
D10*
%TO.P,H1,1*%
%TO.N,N/C*%
X1600000Y31000000D03*
X2302944Y32697056D03*
X2302944Y29302944D03*
X4000000Y33400000D03*
D11*
X4000000Y31000000D03*
D10*
X4000000Y28600000D03*
X5697056Y32697056D03*
X5697056Y29302944D03*
X6400000Y31000000D03*
%TD*%
D12*
%TO.P,C4,1*%
%TO.N,GND*%
X10250000Y10480000D03*
%TO.P,C4,2*%
%TO.N,3V3*%
X10250000Y9520000D03*
%TD*%
D13*
%TO.P,J3,1,Pin_1*%
%TO.N,3V3*%
X5950000Y4250000D03*
%TO.P,J3,2,Pin_2*%
%TO.N,/CAN0_RX*%
X5950000Y5500000D03*
%TO.P,J3,3,Pin_3*%
%TO.N,/CAN0_TX*%
X5950000Y6750000D03*
%TO.P,J3,4,Pin_4*%
%TO.N,unconnected-(J3-Pin_4-Pad4)*%
X5950000Y8000000D03*
%TO.P,J3,5,Pin_5*%
%TO.N,unconnected-(J3-Pin_5-Pad5)*%
X5950000Y9250000D03*
%TO.P,J3,6,Pin_6*%
%TO.N,unconnected-(J3-Pin_6-Pad6)*%
X5950000Y10500000D03*
%TO.P,J3,7,Pin_7*%
%TO.N,GND*%
X5950000Y11750000D03*
D14*
%TO.P,J3,MP*%
%TO.N,N/C*%
X2600000Y2400000D03*
X2600000Y13600000D03*
%TD*%
D10*
%TO.P,H2,1*%
%TO.N,N/C*%
X23600000Y4000000D03*
X24302944Y5697056D03*
X24302944Y2302944D03*
X26000000Y6400000D03*
D11*
X26000000Y4000000D03*
D10*
X26000000Y1600000D03*
X27697056Y5697056D03*
X27697056Y2302944D03*
X28400000Y4000000D03*
%TD*%
D15*
%TO.P,C2,1*%
%TO.N,GND*%
X15775000Y6250000D03*
%TO.P,C2,2*%
%TO.N,3V3*%
X14225000Y6250000D03*
%TD*%
D16*
%TO.P,J2,1,Pin_1*%
%TO.N,Net-(J1-Pin_1)*%
X12000000Y18500000D03*
%TO.P,J2,2,Pin_2*%
%TO.N,Net-(J1-Pin_2)*%
X14000000Y18500000D03*
%TO.P,J2,3,Pin_3*%
%TO.N,Net-(J1-Pin_3)*%
X16000000Y18500000D03*
%TO.P,J2,4,Pin_4*%
%TO.N,Net-(J1-Pin_4)*%
X18000000Y18500000D03*
%TO.P,J2,5,Pin_5*%
%TO.N,unconnected-(J2-Pin_5-Pad5)*%
X20000000Y18500000D03*
%TO.P,J2,6,Pin_6*%
%TO.N,unconnected-(J2-Pin_6-Pad6)*%
X22000000Y18500000D03*
%TO.P,J2,7,Pin_7*%
%TO.N,Net-(J1-Pin_7)*%
X24000000Y18500000D03*
%TO.P,J2,8,Pin_8*%
%TO.N,Net-(J1-Pin_8)*%
X26000000Y18500000D03*
D17*
%TO.P,J2,MP*%
%TO.N,N/C*%
X9600000Y20750000D03*
X28400000Y20750000D03*
%TD*%
D16*
%TO.P,J1,1,Pin_1*%
%TO.N,Net-(J1-Pin_1)*%
X12000000Y28500000D03*
%TO.P,J1,2,Pin_2*%
%TO.N,Net-(J1-Pin_2)*%
X14000000Y28500000D03*
%TO.P,J1,3,Pin_3*%
%TO.N,Net-(J1-Pin_3)*%
X16000000Y28500000D03*
%TO.P,J1,4,Pin_4*%
%TO.N,Net-(J1-Pin_4)*%
X18000000Y28500000D03*
%TO.P,J1,5,Pin_5*%
%TO.N,/RS485-A*%
X20000000Y28500000D03*
%TO.P,J1,6,Pin_6*%
%TO.N,/RS485-B*%
X22000000Y28500000D03*
%TO.P,J1,7,Pin_7*%
%TO.N,Net-(J1-Pin_7)*%
X24000000Y28500000D03*
%TO.P,J1,8,Pin_8*%
%TO.N,Net-(J1-Pin_8)*%
X26000000Y28500000D03*
D17*
%TO.P,J1,MP*%
%TO.N,N/C*%
X9600000Y30750000D03*
X28400000Y30750000D03*
%TD*%
D18*
%TO.P,U2,1,TXD*%
%TO.N,/CAN0_TX*%
X12525000Y11905000D03*
%TO.P,U2,2,GND*%
%TO.N,GND*%
X12525000Y10635000D03*
%TO.P,U2,3,VCC*%
%TO.N,3V3*%
X12525000Y9365000D03*
%TO.P,U2,4,RXD*%
%TO.N,/CAN0_RX*%
X12525000Y8095000D03*
%TO.P,U2,5,NC*%
%TO.N,unconnected-(U2-NC-Pad5)*%
X17475000Y8095000D03*
%TO.P,U2,6,CANL*%
%TO.N,/RS485-B*%
X17475000Y9365000D03*
%TO.P,U2,7,CANH*%
%TO.N,/RS485-A*%
X17475000Y10635000D03*
%TO.P,U2,8,NC*%
%TO.N,unconnected-(U2-NC-Pad8)*%
X17475000Y11905000D03*
%TD*%
D19*
%TO.N,/RS485-A*%
X20000000Y24250000D03*
X20000000Y13500000D03*
%TO.N,/RS485-B*%
X22000000Y23000000D03*
X22000000Y12750000D03*
D20*
%TO.N,/CAN0_TX*%
X8500000Y9750000D03*
%TO.N,/CAN0_RX*%
X9750000Y7250000D03*
%TD*%
D21*
%TO.N,/RS485-A*%
X17475000Y10635000D02*
X18885000Y10635000D01*
X18885000Y10635000D02*
X20000000Y11750000D01*
X20000000Y28500000D02*
X20000000Y24250000D01*
X20000000Y11750000D02*
X20000000Y13500000D01*
D22*
%TO.N,Net-(J1-Pin_8)*%
X26000000Y28500000D02*
X26000000Y18500000D01*
%TO.N,Net-(J1-Pin_2)*%
X14000000Y28500000D02*
X14000000Y18500000D01*
%TO.N,Net-(J1-Pin_7)*%
X24000000Y28500000D02*
X24000000Y18500000D01*
D21*
%TO.N,/RS485-B*%
X20115000Y9365000D02*
X21500000Y10750000D01*
X22000000Y11250000D02*
X22000000Y12750000D01*
X21500000Y10750000D02*
X22000000Y11250000D01*
X22000000Y28500000D02*
X22000000Y23000000D01*
X17475000Y9365000D02*
X20115000Y9365000D01*
D22*
%TO.N,Net-(J1-Pin_3)*%
X16000000Y28500000D02*
X16000000Y18500000D01*
%TO.N,Net-(J1-Pin_4)*%
X18000000Y28500000D02*
X18000000Y18500000D01*
%TO.N,Net-(J1-Pin_1)*%
X12000000Y28500000D02*
X12000000Y18500000D01*
D23*
%TO.N,3V3*%
X14225000Y6250000D02*
X14250000Y6275000D01*
D21*
X8975000Y4250000D02*
X9000000Y4275000D01*
D23*
X14250000Y6275000D02*
X14250000Y8865000D01*
D21*
X8000000Y4250000D02*
X8975000Y4250000D01*
D23*
X13750000Y9365000D02*
X12525000Y9365000D01*
D21*
X8000000Y4250000D02*
X12225000Y4250000D01*
X12225000Y4250000D02*
X14225000Y6250000D01*
D23*
X12525000Y9365000D02*
X10405000Y9365000D01*
X10405000Y9365000D02*
X10250000Y9520000D01*
D21*
X5950000Y4250000D02*
X8000000Y4250000D01*
D23*
X14250000Y8865000D02*
X13750000Y9365000D01*
D21*
%TO.N,GND*%
X14615000Y10635000D02*
X14615000Y12135000D01*
D23*
X14615000Y10635000D02*
X15775000Y9475000D01*
X12525000Y10635000D02*
X14615000Y10635000D01*
X12525000Y10635000D02*
X10405000Y10635000D01*
D21*
X5950000Y11750000D02*
X8000000Y11750000D01*
X8000000Y11750000D02*
X9250000Y13000000D01*
D23*
X10405000Y10635000D02*
X10250000Y10480000D01*
X15775000Y9475000D02*
X15775000Y6250000D01*
D21*
X14615000Y12135000D02*
X13750000Y13000000D01*
X9250000Y13000000D02*
X13750000Y13000000D01*
D24*
%TO.N,/CAN0_TX*%
X9905000Y11905000D02*
X8500000Y10500000D01*
X12525000Y11905000D02*
X9905000Y11905000D01*
X7250000Y6750000D02*
X5950000Y6750000D01*
X8500000Y10500000D02*
X8500000Y8000000D01*
X8500000Y8000000D02*
X7250000Y6750000D01*
%TO.N,/CAN0_RX*%
X5950000Y5500000D02*
X8000000Y5500000D01*
X10595000Y8095000D02*
X12525000Y8095000D01*
X8000000Y5500000D02*
X10595000Y8095000D01*
%TD*%
M02*
