M48
; DRILL file {KiCad 9.0.0} date 2025-02-28T01:07:07-0800
; FORMAT={-:-/ absolute / inch / decimal}
; #@! TF.CreationDate,2025-02-28T01:07:07-08:00
; #@! TF.GenerationSoftware,Kicad,Pcbnew,9.0.0
; #@! TF.FileFunction,Plated,1,2,PTH
FMAT,2
INCH
; #@! TA.AperFunction,Plated,PTH,ComponentDrill
T1C0.0197
; #@! TA.AperFunction,Plated,PTH,ViaDrill
T2C0.0200
; #@! TA.AperFunction,Plated,PTH,ViaDrill
T3C0.0236
; #@! TA.AperFunction,Plated,PTH,ComponentDrill
T4C0.1260
%
G90
G05
T1
X0.063Y1.2205
X0.0907Y1.2873
X0.0907Y1.1537
X0.1575Y1.315
X0.1575Y1.126
X0.2243Y1.2873
X0.2243Y1.1537
X0.252Y1.2205
X0.9291Y0.1575
X0.9568Y0.2243
X0.9568Y0.0907
X1.0236Y0.252
X1.0236Y0.063
X1.0904Y0.2243
X1.0904Y0.0907
X1.1181Y0.1575
T2
X0.7874Y0.9547
X0.7874Y0.5315
X0.8661Y0.9055
X0.8661Y0.502
T3
X0.3346Y0.3839
X0.3839Y0.2854
T4
X0.1575Y1.2205
X1.0236Y0.1575
M30
